<?xml version="1.0" encoding="utf-8" standalone="no"?>
<!DOCTYPE svg PUBLIC "-//W3C//DTD SVG 1.1//EN"
  "http://www.w3.org/Graphics/SVG/1.1/DTD/svg11.dtd">
<svg xmlns:xlink="http://www.w3.org/1999/xlink" width="290.485547pt" height="185.062569pt" viewBox="0 0 290.485547 185.062569" xmlns="http://www.w3.org/2000/svg" version="1.1">
 <metadata>
  <rdf:RDF xmlns:dc="http://purl.org/dc/elements/1.1/" xmlns:cc="http://creativecommons.org/ns#" xmlns:rdf="http://www.w3.org/1999/02/22-rdf-syntax-ns#">
   <cc:Work>
    <dc:type rdf:resource="http://purl.org/dc/dcmitype/StillImage"/>
    <dc:date>2024-04-09T13:44:04.508399</dc:date>
    <dc:format>image/svg+xml</dc:format>
    <dc:creator>
     <cc:Agent>
      <dc:title>Matplotlib v3.8.2, https://matplotlib.org/</dc:title>
     </cc:Agent>
    </dc:creator>
   </cc:Work>
  </rdf:RDF>
 </metadata>
 <defs>
  <style type="text/css">*{stroke-linejoin: round; stroke-linecap: butt}</style>
 </defs>
 <g id="figure_1">
  <g id="patch_1">
   <path d="M 0 185.062569 
L 290.485547 185.062569 
L 290.485547 0 
L 0 0 
z
" style="fill: #ffffff"/>
  </g>
  <g id="axes_1">
   <g id="patch_2">
    <path d="M 52.916797 144.7821 
L 283.285547 144.7821 
L 283.285547 30.13035 
L 52.916797 30.13035 
z
" style="fill: #ffffff"/>
   </g>
   <g id="matplotlib.axis_1">
    <g id="xtick_1">
     <g id="line2d_1">
      <path d="M 96.485456 144.7821 
L 96.485456 30.13035 
" clip-path="url(#pf8f602bf86)" style="fill: none; stroke: #b0b0b0; stroke-opacity: 0.5; stroke-width: 0.8; stroke-linecap: square"/>
     </g>
     <g id="line2d_2">
      <defs>
       <path id="m8cf3b905b6" d="M 0 0 
L 0 3.5 
" style="stroke: #000000; stroke-width: 0.8"/>
      </defs>
      <g>
       <use xlink:href="#m8cf3b905b6" x="96.485456" y="144.7821" style="stroke: #000000; stroke-width: 0.8"/>
      </g>
     </g>
     <g id="text_1">
      <!-- 2 -->
      <g transform="translate(93.304206 159.380537) scale(0.1 -0.1)">
       <defs>
        <path id="DejaVuSans-32" d="M 1228 531 
L 3431 531 
L 3431 0 
L 469 0 
L 469 531 
Q 828 903 1448 1529 
Q 2069 2156 2228 2338 
Q 2531 2678 2651 2914 
Q 2772 3150 2772 3378 
Q 2772 3750 2511 3984 
Q 2250 4219 1831 4219 
Q 1534 4219 1204 4116 
Q 875 4013 500 3803 
L 500 4441 
Q 881 4594 1212 4672 
Q 1544 4750 1819 4750 
Q 2544 4750 2975 4387 
Q 3406 4025 3406 3419 
Q 3406 3131 3298 2873 
Q 3191 2616 2906 2266 
Q 2828 2175 2409 1742 
Q 1991 1309 1228 531 
z
" transform="scale(0.015625)"/>
       </defs>
       <use xlink:href="#DejaVuSans-32"/>
      </g>
     </g>
    </g>
    <g id="xtick_2">
     <g id="line2d_3">
      <path d="M 140.594851 144.7821 
L 140.594851 30.13035 
" clip-path="url(#pf8f602bf86)" style="fill: none; stroke: #b0b0b0; stroke-opacity: 0.5; stroke-width: 0.8; stroke-linecap: square"/>
     </g>
     <g id="line2d_4">
      <g>
       <use xlink:href="#m8cf3b905b6" x="140.594851" y="144.7821" style="stroke: #000000; stroke-width: 0.8"/>
      </g>
     </g>
     <g id="text_2">
      <!-- 4 -->
      <g transform="translate(137.413601 159.380537) scale(0.1 -0.1)">
       <defs>
        <path id="DejaVuSans-34" d="M 2419 4116 
L 825 1625 
L 2419 1625 
L 2419 4116 
z
M 2253 4666 
L 3047 4666 
L 3047 1625 
L 3713 1625 
L 3713 1100 
L 3047 1100 
L 3047 0 
L 2419 0 
L 2419 1100 
L 313 1100 
L 313 1709 
L 2253 4666 
z
" transform="scale(0.015625)"/>
       </defs>
       <use xlink:href="#DejaVuSans-34"/>
      </g>
     </g>
    </g>
    <g id="xtick_3">
     <g id="line2d_5">
      <path d="M 184.704246 144.7821 
L 184.704246 30.13035 
" clip-path="url(#pf8f602bf86)" style="fill: none; stroke: #b0b0b0; stroke-opacity: 0.5; stroke-width: 0.8; stroke-linecap: square"/>
     </g>
     <g id="line2d_6">
      <g>
       <use xlink:href="#m8cf3b905b6" x="184.704246" y="144.7821" style="stroke: #000000; stroke-width: 0.8"/>
      </g>
     </g>
     <g id="text_3">
      <!-- 6 -->
      <g transform="translate(181.522996 159.380537) scale(0.1 -0.1)">
       <defs>
        <path id="DejaVuSans-36" d="M 2113 2584 
Q 1688 2584 1439 2293 
Q 1191 2003 1191 1497 
Q 1191 994 1439 701 
Q 1688 409 2113 409 
Q 2538 409 2786 701 
Q 3034 994 3034 1497 
Q 3034 2003 2786 2293 
Q 2538 2584 2113 2584 
z
M 3366 4563 
L 3366 3988 
Q 3128 4100 2886 4159 
Q 2644 4219 2406 4219 
Q 1781 4219 1451 3797 
Q 1122 3375 1075 2522 
Q 1259 2794 1537 2939 
Q 1816 3084 2150 3084 
Q 2853 3084 3261 2657 
Q 3669 2231 3669 1497 
Q 3669 778 3244 343 
Q 2819 -91 2113 -91 
Q 1303 -91 875 529 
Q 447 1150 447 2328 
Q 447 3434 972 4092 
Q 1497 4750 2381 4750 
Q 2619 4750 2861 4703 
Q 3103 4656 3366 4563 
z
" transform="scale(0.015625)"/>
       </defs>
       <use xlink:href="#DejaVuSans-36"/>
      </g>
     </g>
    </g>
    <g id="xtick_4">
     <g id="line2d_7">
      <path d="M 228.813641 144.7821 
L 228.813641 30.13035 
" clip-path="url(#pf8f602bf86)" style="fill: none; stroke: #b0b0b0; stroke-opacity: 0.5; stroke-width: 0.8; stroke-linecap: square"/>
     </g>
     <g id="line2d_8">
      <g>
       <use xlink:href="#m8cf3b905b6" x="228.813641" y="144.7821" style="stroke: #000000; stroke-width: 0.8"/>
      </g>
     </g>
     <g id="text_4">
      <!-- 8 -->
      <g transform="translate(225.632391 159.380537) scale(0.1 -0.1)">
       <defs>
        <path id="DejaVuSans-38" d="M 2034 2216 
Q 1584 2216 1326 1975 
Q 1069 1734 1069 1313 
Q 1069 891 1326 650 
Q 1584 409 2034 409 
Q 2484 409 2743 651 
Q 3003 894 3003 1313 
Q 3003 1734 2745 1975 
Q 2488 2216 2034 2216 
z
M 1403 2484 
Q 997 2584 770 2862 
Q 544 3141 544 3541 
Q 544 4100 942 4425 
Q 1341 4750 2034 4750 
Q 2731 4750 3128 4425 
Q 3525 4100 3525 3541 
Q 3525 3141 3298 2862 
Q 3072 2584 2669 2484 
Q 3125 2378 3379 2068 
Q 3634 1759 3634 1313 
Q 3634 634 3220 271 
Q 2806 -91 2034 -91 
Q 1263 -91 848 271 
Q 434 634 434 1313 
Q 434 1759 690 2068 
Q 947 2378 1403 2484 
z
M 1172 3481 
Q 1172 3119 1398 2916 
Q 1625 2713 2034 2713 
Q 2441 2713 2670 2916 
Q 2900 3119 2900 3481 
Q 2900 3844 2670 4047 
Q 2441 4250 2034 4250 
Q 1625 4250 1398 4047 
Q 1172 3844 1172 3481 
z
" transform="scale(0.015625)"/>
       </defs>
       <use xlink:href="#DejaVuSans-38"/>
      </g>
     </g>
    </g>
    <g id="xtick_5">
     <g id="line2d_9">
      <path d="M 272.923036 144.7821 
L 272.923036 30.13035 
" clip-path="url(#pf8f602bf86)" style="fill: none; stroke: #b0b0b0; stroke-opacity: 0.5; stroke-width: 0.8; stroke-linecap: square"/>
     </g>
     <g id="line2d_10">
      <g>
       <use xlink:href="#m8cf3b905b6" x="272.923036" y="144.7821" style="stroke: #000000; stroke-width: 0.8"/>
      </g>
     </g>
     <g id="text_5">
      <!-- 10 -->
      <g transform="translate(266.560536 159.380537) scale(0.1 -0.1)">
       <defs>
        <path id="DejaVuSans-31" d="M 794 531 
L 1825 531 
L 1825 4091 
L 703 3866 
L 703 4441 
L 1819 4666 
L 2450 4666 
L 2450 531 
L 3481 531 
L 3481 0 
L 794 0 
L 794 531 
z
" transform="scale(0.015625)"/>
        <path id="DejaVuSans-30" d="M 2034 4250 
Q 1547 4250 1301 3770 
Q 1056 3291 1056 2328 
Q 1056 1369 1301 889 
Q 1547 409 2034 409 
Q 2525 409 2770 889 
Q 3016 1369 3016 2328 
Q 3016 3291 2770 3770 
Q 2525 4250 2034 4250 
z
M 2034 4750 
Q 2819 4750 3233 4129 
Q 3647 3509 3647 2328 
Q 3647 1150 3233 529 
Q 2819 -91 2034 -91 
Q 1250 -91 836 529 
Q 422 1150 422 2328 
Q 422 3509 836 4129 
Q 1250 4750 2034 4750 
z
" transform="scale(0.015625)"/>
       </defs>
       <use xlink:href="#DejaVuSans-31"/>
       <use xlink:href="#DejaVuSans-30" x="63.623047"/>
      </g>
     </g>
    </g>
    <g id="text_6">
     <!-- 时间 (ms) -->
     <g transform="translate(141.610938 175.72585) scale(0.125 -0.125)">
      <defs>
       <path id="WenQuanYiZenHei-65f6" d="M 3594 1119 
Q 3250 1863 2819 2556 
L 3238 2813 
Q 3681 2094 4038 1331 
L 3594 1119 
z
M 4744 144 
L 4744 3400 
L 3369 3400 
Q 3019 3400 2669 3381 
Q 2688 3569 2669 3756 
Q 3019 3744 3369 3744 
L 4744 3744 
L 4744 4356 
Q 4744 4806 4719 5256 
Q 4969 5231 5213 5256 
Q 5188 4806 5188 4356 
L 5188 3744 
L 5488 3744 
Q 5838 3744 6188 3756 
Q 6169 3569 6188 3381 
Q 5838 3400 5488 3400 
L 5188 3400 
L 5188 -31 
Q 5188 -475 4938 -644 
Q 4675 -825 4056 -819 
Q 4125 -513 3913 -275 
Q 4106 -300 4353 -303 
Q 4600 -306 4672 -247 
Q 4744 -188 4744 144 
z
M 975 219 
L 425 219 
L 425 4700 
L 2406 4700 
L 2406 219 
L 1863 219 
L 1863 588 
L 975 588 
L 975 219 
z
M 1863 2806 
L 1863 4381 
L 975 4381 
L 975 2806 
L 1863 2806 
z
M 1863 2488 
L 975 2488 
L 975 906 
L 1863 906 
L 1863 2488 
z
" transform="scale(0.015625)"/>
       <path id="WenQuanYiZenHei-95f4" d="M 2313 363 
L 1869 363 
L 1869 3631 
L 4319 3631 
L 4319 363 
L 3875 363 
L 3875 681 
L 2313 681 
L 2313 363 
z
M 3875 2338 
L 3875 3288 
L 2313 3288 
L 2313 2338 
L 3875 2338 
z
M 3875 1994 
L 2313 1994 
L 2313 1025 
L 3875 1025 
L 3875 1994 
z
M 4638 -794 
Q 4688 -456 4494 -256 
Q 4688 -281 4944 -284 
Q 5200 -288 5269 -234 
Q 5338 -181 5338 119 
L 5338 4394 
L 2988 4394 
Q 2650 4394 2319 4375 
Q 2338 4556 2319 4738 
Q 2650 4725 2988 4725 
L 5775 4725 
L 5775 -44 
Q 5775 -563 5369 -706 
Q 5025 -819 4638 -794 
z
M 950 -844 
Q 706 -819 469 -844 
Q 488 -400 488 44 
L 488 3413 
Q 488 3863 469 4306 
Q 706 4281 950 4306 
Q 931 3863 931 3413 
L 931 44 
Q 931 -400 950 -844 
z
M 1713 3913 
Q 1363 4444 944 4906 
L 1300 5231 
Q 1744 4738 2113 4181 
L 1713 3913 
z
" transform="scale(0.015625)"/>
       <path id="WenQuanYiZenHei-20" transform="scale(0.015625)"/>
       <path id="WenQuanYiZenHei-28" d="M 1606 -1094 
L 1275 -1094 
Q 475 -100 338 1231 
Q 319 1438 319 1656 
Q 319 3031 1156 4244 
Q 1213 4313 1269 4388 
L 1600 4388 
Q 806 3169 794 1681 
Q 794 188 1606 -1094 
z
" transform="scale(0.015625)"/>
       <path id="WenQuanYiZenHei-6d" d="M 4813 0 
L 4313 0 
L 4313 2069 
Q 4313 2763 3881 2900 
Q 3788 2925 3681 2925 
Q 3313 2925 3050 2563 
Q 2881 2306 2875 1863 
L 2875 1756 
L 2875 0 
L 2375 0 
L 2375 2063 
Q 2375 2750 1931 2894 
Q 1838 2925 1719 2925 
Q 1413 2925 1163 2644 
Q 1144 2625 1131 2606 
Q 938 2356 938 1863 
L 938 0 
L 438 0 
L 438 3250 
L 888 3250 
L 888 2625 
L 900 2625 
Q 1100 3100 1531 3269 
Q 1694 3338 1875 3338 
Q 2394 3338 2663 2888 
Q 2750 2738 2788 2563 
Q 3013 3119 3506 3281 
Q 3669 3338 3838 3338 
Q 4263 3338 4556 3006 
L 4656 2869 
Q 4813 2606 4813 2050 
L 4813 0 
z
" transform="scale(0.015625)"/>
       <path id="WenQuanYiZenHei-73" d="M 3031 944 
Q 3031 294 2350 44 
Q 2050 -63 1681 -63 
Q 863 -63 475 425 
Q 319 613 256 863 
L 744 963 
Q 806 544 1344 406 
Q 1531 350 1719 350 
Q 2250 350 2438 631 
Q 2506 744 2506 888 
Q 2506 1206 2081 1331 
L 1638 1425 
Q 988 1544 750 1688 
Q 388 1919 388 2381 
Q 388 2975 994 3219 
Q 1269 3338 1606 3338 
Q 2463 3338 2781 2781 
Q 2856 2663 2894 2513 
L 2431 2419 
Q 2275 2869 1725 2925 
Q 1663 2931 1600 2931 
Q 1150 2931 981 2688 
Q 906 2594 906 2456 
Q 906 2138 1356 2013 
Q 1413 1988 2038 1881 
Q 2456 1806 2644 1675 
Q 3031 1413 3031 944 
z
" transform="scale(0.015625)"/>
       <path id="WenQuanYiZenHei-29" d="M 1600 1656 
Q 1600 306 869 -788 
Q 769 -950 644 -1094 
L 313 -1094 
Q 1125 188 1125 1681 
Q 1125 3169 338 4363 
Q 325 4375 319 4388 
L 650 4388 
Q 1525 3231 1594 1863 
Q 1600 1763 1600 1656 
z
" transform="scale(0.015625)"/>
      </defs>
      <use xlink:href="#WenQuanYiZenHei-65f6"/>
      <use xlink:href="#WenQuanYiZenHei-95f4" x="100"/>
      <use xlink:href="#WenQuanYiZenHei-20" x="200"/>
      <use xlink:href="#WenQuanYiZenHei-28" x="229.980469"/>
      <use xlink:href="#WenQuanYiZenHei-6d" x="259.960938"/>
      <use xlink:href="#WenQuanYiZenHei-73" x="341.894531"/>
      <use xlink:href="#WenQuanYiZenHei-29" x="393.847656"/>
     </g>
    </g>
   </g>
   <g id="matplotlib.axis_2">
    <g id="ytick_1">
     <g id="line2d_11">
      <path d="M 52.916797 132.367469 
L 283.285547 132.367469 
" clip-path="url(#pf8f602bf86)" style="fill: none; stroke: #b0b0b0; stroke-opacity: 0.5; stroke-width: 0.8; stroke-linecap: square"/>
     </g>
     <g id="line2d_12">
      <defs>
       <path id="m5e80b1bf0c" d="M 0 0 
L -3.5 0 
" style="stroke: #000000; stroke-width: 0.8"/>
      </defs>
      <g>
       <use xlink:href="#m5e80b1bf0c" x="52.916797" y="132.367469" style="stroke: #000000; stroke-width: 0.8"/>
      </g>
     </g>
     <g id="text_7">
      <!-- 5.0 -->
      <g transform="translate(30.013672 136.166688) scale(0.1 -0.1)">
       <defs>
        <path id="DejaVuSans-35" d="M 691 4666 
L 3169 4666 
L 3169 4134 
L 1269 4134 
L 1269 2991 
Q 1406 3038 1543 3061 
Q 1681 3084 1819 3084 
Q 2600 3084 3056 2656 
Q 3513 2228 3513 1497 
Q 3513 744 3044 326 
Q 2575 -91 1722 -91 
Q 1428 -91 1123 -41 
Q 819 9 494 109 
L 494 744 
Q 775 591 1075 516 
Q 1375 441 1709 441 
Q 2250 441 2565 725 
Q 2881 1009 2881 1497 
Q 2881 1984 2565 2268 
Q 2250 2553 1709 2553 
Q 1456 2553 1204 2497 
Q 953 2441 691 2322 
L 691 4666 
z
" transform="scale(0.015625)"/>
        <path id="DejaVuSans-2e" d="M 684 794 
L 1344 794 
L 1344 0 
L 684 0 
L 684 794 
z
" transform="scale(0.015625)"/>
       </defs>
       <use xlink:href="#DejaVuSans-35"/>
       <use xlink:href="#DejaVuSans-2e" x="63.623047"/>
       <use xlink:href="#DejaVuSans-30" x="95.410156"/>
      </g>
     </g>
    </g>
    <g id="ytick_2">
     <g id="line2d_13">
      <path d="M 52.916797 104.651332 
L 283.285547 104.651332 
" clip-path="url(#pf8f602bf86)" style="fill: none; stroke: #b0b0b0; stroke-opacity: 0.5; stroke-width: 0.8; stroke-linecap: square"/>
     </g>
     <g id="line2d_14">
      <g>
       <use xlink:href="#m5e80b1bf0c" x="52.916797" y="104.651332" style="stroke: #000000; stroke-width: 0.8"/>
      </g>
     </g>
     <g id="text_8">
      <!-- 7.5 -->
      <g transform="translate(30.013672 108.450551) scale(0.1 -0.1)">
       <defs>
        <path id="DejaVuSans-37" d="M 525 4666 
L 3525 4666 
L 3525 4397 
L 1831 0 
L 1172 0 
L 2766 4134 
L 525 4134 
L 525 4666 
z
" transform="scale(0.015625)"/>
       </defs>
       <use xlink:href="#DejaVuSans-37"/>
       <use xlink:href="#DejaVuSans-2e" x="63.623047"/>
       <use xlink:href="#DejaVuSans-35" x="95.410156"/>
      </g>
     </g>
    </g>
    <g id="ytick_3">
     <g id="line2d_15">
      <path d="M 52.916797 76.935195 
L 283.285547 76.935195 
" clip-path="url(#pf8f602bf86)" style="fill: none; stroke: #b0b0b0; stroke-opacity: 0.5; stroke-width: 0.8; stroke-linecap: square"/>
     </g>
     <g id="line2d_16">
      <g>
       <use xlink:href="#m5e80b1bf0c" x="52.916797" y="76.935195" style="stroke: #000000; stroke-width: 0.8"/>
      </g>
     </g>
     <g id="text_9">
      <!-- 10.0 -->
      <g transform="translate(23.651172 80.734414) scale(0.1 -0.1)">
       <use xlink:href="#DejaVuSans-31"/>
       <use xlink:href="#DejaVuSans-30" x="63.623047"/>
       <use xlink:href="#DejaVuSans-2e" x="127.246094"/>
       <use xlink:href="#DejaVuSans-30" x="159.033203"/>
      </g>
     </g>
    </g>
    <g id="ytick_4">
     <g id="line2d_17">
      <path d="M 52.916797 49.219058 
L 283.285547 49.219058 
" clip-path="url(#pf8f602bf86)" style="fill: none; stroke: #b0b0b0; stroke-opacity: 0.5; stroke-width: 0.8; stroke-linecap: square"/>
     </g>
     <g id="line2d_18">
      <g>
       <use xlink:href="#m5e80b1bf0c" x="52.916797" y="49.219058" style="stroke: #000000; stroke-width: 0.8"/>
      </g>
     </g>
     <g id="text_10">
      <!-- 12.5 -->
      <g transform="translate(23.651172 53.018277) scale(0.1 -0.1)">
       <use xlink:href="#DejaVuSans-31"/>
       <use xlink:href="#DejaVuSans-32" x="63.623047"/>
       <use xlink:href="#DejaVuSans-2e" x="127.246094"/>
       <use xlink:href="#DejaVuSans-35" x="159.033203"/>
      </g>
     </g>
    </g>
    <g id="text_11">
     <!-- 平均流完成时间减缓 -->
     <g transform="translate(17.575 143.706225) rotate(-90) scale(0.125 -0.125)">
      <defs>
       <path id="WenQuanYiZenHei-5e73" d="M 3331 -775 
Q 3075 -750 2825 -775 
Q 2850 -306 2850 156 
L 2850 1869 
L 875 1869 
Q 494 1869 113 1850 
Q 138 2056 113 2263 
Q 494 2244 875 2244 
L 2850 2244 
L 2850 4519 
L 1263 4519 
Q 881 4519 506 4500 
Q 525 4706 506 4913 
Q 881 4894 1263 4894 
L 4988 4894 
Q 5369 4894 5744 4913 
Q 5725 4706 5744 4500 
Q 5369 4519 4988 4519 
L 3306 4519 
L 3306 2244 
L 5375 2244 
Q 5756 2244 6138 2263 
Q 6113 2056 6138 1850 
Q 5756 1869 5375 1869 
L 3306 1869 
L 3306 156 
Q 3306 -306 3331 -775 
z
M 4806 4238 
Q 5019 4100 5250 4006 
Q 4838 3219 4163 2394 
Q 4000 2569 3763 2619 
Q 4131 3056 4506 3713 
L 4806 4238 
z
M 1800 2488 
Q 1394 3238 906 3938 
L 1319 4225 
Q 1825 3506 2244 2731 
L 1800 2488 
z
" transform="scale(0.015625)"/>
       <path id="WenQuanYiZenHei-5747" d="M 2700 1250 
Q 3588 1344 4313 1563 
Q 4575 1644 5106 1813 
L 5119 1506 
Q 3656 1050 2869 719 
Q 2863 1006 2700 1250 
z
M 4288 1944 
Q 3806 2406 3263 2800 
L 3550 3200 
Q 4119 2788 4631 2300 
L 4288 1944 
z
M 5413 3681 
L 3506 3681 
Q 3200 2988 2744 2200 
Q 2563 2350 2331 2363 
Q 2694 2963 2953 3581 
Q 3213 4200 3500 5131 
Q 3725 5044 3969 5000 
Q 3844 4519 3644 4025 
L 5856 4025 
L 5856 -100 
Q 5856 -413 5650 -619 
Q 5425 -831 4706 -825 
Q 4775 -513 4556 -281 
Q 4756 -306 5022 -306 
Q 5288 -306 5350 -256 
Q 5413 -175 5413 106 
L 5413 3681 
z
M -38 625 
Q 563 763 1113 975 
L 1113 3206 
L 744 3206 
Q 413 3206 81 3188 
Q 100 3356 81 3531 
Q 413 3513 744 3513 
L 1113 3513 
L 1113 4263 
Q 1113 4700 1088 5131 
Q 1338 5106 1588 5131 
Q 1563 4700 1563 4263 
L 1563 3513 
L 2481 3531 
Q 2463 3356 2481 3188 
L 1563 3206 
L 1563 1163 
L 2381 1531 
L 2431 1256 
Q 1406 775 900 519 
L 213 144 
Q 150 438 -38 625 
z
" transform="scale(0.015625)"/>
       <path id="WenQuanYiZenHei-6d41" d="M 5338 -663 
Q 5031 -663 4865 -484 
Q 4700 -306 4700 -31 
L 4700 1319 
Q 4700 1756 4681 2194 
Q 4919 2169 5150 2194 
Q 5131 1756 5131 1319 
L 5131 -31 
Q 5131 -138 5190 -216 
Q 5250 -294 5344 -294 
L 5663 -294 
Q 5725 -294 5738 -244 
Q 5750 -125 5744 13 
L 5856 725 
Q 6050 606 6275 600 
L 6100 -300 
L 6088 -544 
Q 6081 -588 6053 -625 
Q 6025 -663 5975 -663 
L 5338 -663 
z
M 4063 -763 
Q 3825 -738 3588 -763 
Q 3613 -331 3613 106 
L 3613 1319 
Q 3613 1756 3588 2194 
Q 3825 2169 4063 2194 
Q 4038 1756 4038 1319 
L 4038 106 
Q 4038 -331 4063 -763 
z
M 2581 844 
L 2581 1319 
Q 2581 1756 2556 2194 
Q 2794 2169 3031 2194 
Q 3006 1756 3006 1319 
L 3006 844 
Q 3006 294 2684 -150 
Q 2363 -594 1863 -788 
Q 1794 -538 1569 -400 
Q 2019 -306 2300 47 
Q 2581 400 2581 844 
z
M 5925 4650 
Q 5906 4481 5925 4313 
Q 5613 4325 5300 4325 
L 3700 4325 
Q 3813 4275 3931 4244 
Q 3888 4138 3809 4019 
Q 3731 3900 3418 3497 
Q 3106 3094 2994 2969 
L 4750 3106 
Q 4513 3400 4263 3675 
L 4619 3994 
Q 5175 3363 5663 2681 
L 5281 2406 
L 4963 2831 
L 4700 2825 
L 2325 2600 
L 2300 2906 
Q 2406 2913 2537 3025 
Q 2669 3138 2987 3578 
Q 3306 4019 3419 4325 
L 2806 4325 
Q 2500 4325 2188 4313 
Q 2200 4481 2188 4650 
Q 2494 4631 2806 4631 
L 3719 4631 
L 3225 5069 
L 3538 5425 
L 4200 4838 
L 4019 4631 
L 5300 4631 
Q 5613 4631 5925 4650 
z
M 888 -738 
Q 644 -588 281 -575 
Q 538 -69 813 581 
Q 1088 1231 1613 2838 
L 1856 2706 
L 1175 338 
L 888 -738 
z
M 1356 2856 
L 981 2550 
L 100 3400 
L 475 3713 
L 1356 2856 
z
M 1463 3913 
Q 1056 4388 575 4800 
L 931 5125 
Q 1438 4688 1869 4188 
L 1463 3913 
z
" transform="scale(0.015625)"/>
       <path id="WenQuanYiZenHei-5b8c" d="M 4231 -681 
Q 3950 -681 3762 -475 
Q 3575 -269 3575 75 
L 3575 1906 
L 2731 1906 
Q 2263 431 2156 206 
Q 2050 -19 1834 -200 
Q 1619 -381 1350 -506 
Q 906 -713 425 -819 
Q 425 -538 263 -319 
Q 981 -175 1425 75 
Q 1750 263 1875 656 
Q 1938 819 1975 963 
L 2250 1906 
L 1213 1906 
Q 863 1906 513 1888 
Q 538 2075 513 2269 
Q 863 2250 1213 2250 
L 5194 2250 
Q 5538 2250 5888 2269 
Q 5869 2075 5888 1888 
Q 5538 1906 5194 1906 
L 4019 1906 
L 4019 75 
Q 4019 -75 4075 -178 
Q 4131 -281 4238 -281 
L 5456 -281 
Q 5525 -281 5563 -225 
Q 5631 -125 5644 44 
L 5769 813 
Q 5963 681 6194 681 
L 5981 -475 
Q 5963 -544 5913 -612 
Q 5863 -681 5788 -681 
L 4231 -681 
z
M 4919 3431 
Q 4900 3244 4919 3050 
Q 4569 3069 4219 3069 
L 1963 3069 
Q 1613 3069 1263 3050 
Q 1281 3244 1263 3431 
Q 1613 3413 1963 3413 
L 4219 3413 
Q 4569 3413 4919 3431 
z
M 875 3425 
L 431 3425 
L 431 4669 
L 3006 4669 
L 2488 5050 
L 2781 5444 
L 3438 4956 
L 3225 4669 
L 5831 4669 
L 5831 3425 
L 5388 3425 
L 5388 4325 
L 875 4325 
L 875 3425 
z
" transform="scale(0.015625)"/>
       <path id="WenQuanYiZenHei-6210" d="M 5425 4344 
L 5063 4006 
L 4269 4863 
L 4638 5200 
L 5425 4344 
z
M 4088 1006 
Q 3588 1988 3613 3594 
L 1481 3588 
L 1481 2644 
L 2975 2644 
L 2975 638 
Q 2975 413 2788 250 
Q 2513 13 1825 19 
Q 1900 331 1681 569 
Q 1875 550 2159 547 
Q 2444 544 2484 578 
Q 2525 613 2525 731 
L 2525 2281 
L 1481 2281 
Q 1556 456 625 -531 
Q 444 -319 169 -294 
Q 1050 413 1031 1975 
L 1031 3950 
L 3613 3950 
L 3594 5256 
Q 3838 5231 4088 5256 
L 4069 3950 
L 5331 3950 
Q 5694 3950 6063 3969 
Q 6038 3769 6063 3575 
Q 5694 3594 5331 3594 
L 4063 3594 
Q 4069 2956 4131 2431 
Q 4194 1906 4400 1406 
Q 4644 1781 4844 2356 
Q 5044 2931 5113 3250 
Q 5375 3175 5650 3150 
Q 5356 1931 4619 963 
Q 4981 319 5638 -138 
Q 5638 406 5606 931 
Q 5831 781 6106 788 
Q 6163 131 6081 -531 
Q 6081 -625 6013 -694 
Q 5894 -819 5738 -750 
Q 4856 -263 4313 600 
Q 3544 -238 2531 -644 
Q 2463 -369 2244 -188 
Q 2731 -6 3222 297 
Q 3713 600 4088 1006 
z
" transform="scale(0.015625)"/>
       <path id="WenQuanYiZenHei-51cf" d="M 5513 4469 
L 5175 4156 
L 4544 4838 
L 4888 5150 
L 5513 4469 
z
M 5531 2881 
Q 5294 1775 4906 825 
Q 5188 281 5650 -106 
Q 5638 300 5606 700 
Q 5825 569 6075 588 
Q 6138 31 6081 -525 
Q 6081 -644 5994 -706 
Q 5875 -806 5738 -725 
Q 5094 -288 4675 381 
Q 4031 -706 2931 -931 
Q 2906 -669 2725 -469 
Q 3438 -350 3913 131 
Q 4225 413 4438 825 
Q 4031 1675 4019 2888 
Q 4013 3363 4025 3725 
L 2144 3725 
L 2144 1338 
Q 2131 450 1775 -81 
Q 1500 -494 1125 -731 
Q 1006 -500 763 -413 
Q 1694 0 1719 1338 
L 1719 4025 
L 4025 4025 
L 4000 5256 
Q 4238 5231 4469 5256 
L 4450 4025 
L 5481 4025 
Q 5781 4025 6088 4038 
Q 6069 3875 6088 3713 
Q 5781 3725 5481 3725 
L 4444 3725 
Q 4444 3388 4438 3044 
Q 4438 2144 4675 1375 
Q 4919 2169 5038 3013 
Q 5281 2925 5531 2881 
z
M 2363 1106 
L 2363 2344 
L 3806 2338 
L 3800 538 
L 2794 531 
Q 2800 388 2806 244 
Q 2575 269 2344 244 
Q 2363 669 2363 1106 
z
M 3825 3175 
Q 3806 3013 3825 2850 
L 3063 2863 
Q 2763 2863 2463 2850 
Q 2475 3013 2463 3175 
L 3219 3163 
Q 3525 3163 3825 3175 
z
M 2788 2044 
L 2788 850 
L 3381 838 
L 3381 2044 
L 2788 2044 
z
M 625 -450 
Q 450 -281 194 -263 
Q 369 206 550 822 
Q 731 1438 1056 2963 
L 1256 2794 
Q 950 1313 806 569 
L 625 -450 
z
M 863 3375 
Q 544 3900 169 4356 
L 406 4725 
Q 800 4244 1144 3694 
L 863 3375 
z
" transform="scale(0.015625)"/>
       <path id="WenQuanYiZenHei-7f13" d="M 2688 2263 
Q 2419 2263 2150 2250 
Q 2163 2394 2150 2538 
Q 2419 2525 2688 2525 
L 3388 2525 
Q 3444 2756 3481 3000 
L 3006 3000 
Q 2719 3000 2425 2988 
Q 2438 3144 2425 3300 
Q 2719 3288 3006 3288 
L 4500 3288 
Q 4956 3813 5338 4531 
Q 5531 4406 5744 4319 
Q 5500 3831 5044 3288 
L 5863 3300 
Q 5850 3144 5863 2988 
Q 5575 3000 5281 3000 
L 4794 3000 
L 4763 2956 
Q 4744 2981 4725 3000 
L 3938 3000 
Q 3894 2763 3831 2525 
L 5600 2525 
Q 5869 2525 6138 2538 
Q 6125 2394 6138 2250 
Q 5869 2263 5600 2263 
L 3756 2263 
Q 3675 2000 3575 1756 
L 5531 1756 
Q 5275 956 4700 350 
Q 5256 -150 6125 -375 
Q 5925 -525 5869 -769 
Q 5075 -556 4425 88 
Q 3725 -506 2819 -706 
Q 2706 -475 2525 -300 
Q 3438 -194 4138 400 
Q 3750 863 3481 1444 
L 3531 1463 
L 3444 1463 
Q 2863 238 1856 -519 
Q 1731 -288 1494 -181 
Q 2131 256 2603 884 
Q 3075 1513 3313 2263 
L 2688 2263 
z
M 4513 3775 
L 4125 3525 
L 3531 4463 
L 3875 4675 
L 2875 4594 
Q 3263 4131 3575 3613 
L 3181 3375 
Q 2875 3875 2500 4331 
L 2813 4588 
Q 2300 4544 2250 4544 
L 2025 4956 
Q 2850 4894 4075 5044 
Q 5138 5156 5694 5288 
Q 5694 5044 5744 4806 
Q 5088 4775 3938 4681 
L 4513 3775 
z
M 3888 1463 
Q 4131 994 4413 663 
Q 4744 1019 4950 1463 
L 3888 1463 
z
M 319 -244 
Q 294 50 163 244 
Q 494 281 900 378 
Q 1306 475 2250 819 
L 2263 575 
Q 1369 225 994 62 
Q 619 -100 319 -244 
z
M 1013 5044 
Q 1219 4963 1456 4919 
Q 1425 4794 1359 4619 
Q 1294 4444 994 3787 
Q 694 3131 581 2919 
L 1225 2994 
Q 1544 3525 1694 3988 
Q 1881 3863 2106 3781 
Q 2044 3619 1931 3422 
Q 1819 3225 1356 2512 
Q 894 1800 725 1575 
L 1506 1700 
L 1800 1781 
L 1794 1488 
L 1544 1456 
L 169 1194 
L 131 1469 
Q 231 1500 306 1588 
Q 619 1963 1063 2719 
L 106 2581 
L 75 2856 
Q 169 2881 225 2969 
Q 394 3244 644 3856 
Q 950 4563 1013 5044 
z
" transform="scale(0.015625)"/>
      </defs>
      <use xlink:href="#WenQuanYiZenHei-5e73"/>
      <use xlink:href="#WenQuanYiZenHei-5747" x="100"/>
      <use xlink:href="#WenQuanYiZenHei-6d41" x="200"/>
      <use xlink:href="#WenQuanYiZenHei-5b8c" x="300"/>
      <use xlink:href="#WenQuanYiZenHei-6210" x="400"/>
      <use xlink:href="#WenQuanYiZenHei-65f6" x="500"/>
      <use xlink:href="#WenQuanYiZenHei-95f4" x="600"/>
      <use xlink:href="#WenQuanYiZenHei-51cf" x="700"/>
      <use xlink:href="#WenQuanYiZenHei-7f13" x="800"/>
     </g>
    </g>
   </g>
   <g id="line2d_19">
    <path d="M 63.388104 128.788555 
L 74.416599 115.027035 
L 85.44075 123.317311 
L 96.471164 115.587976 
L 107.489515 107.86801 
L 118.508571 109.120979 
L 129.525378 106.807888 
L 140.566599 88.382143 
L 151.586537 86.788297 
L 162.614592 97.626614 
L 173.6355 92.401754 
L 184.652197 102.70925 
L 195.686581 93.479987 
L 206.706475 101.286196 
L 217.730361 108.118022 
L 228.757688 92.47811 
L 239.77176 79.901342 
L 250.806166 83.735527 
L 261.829898 106.58094 
L 272.81424 103.286157 
" clip-path="url(#pf8f602bf86)" style="fill: none; stroke: #f97306; stroke-width: 3; stroke-linecap: square"/>
    <defs>
     <path id="me33ba1cdfe" d="M 0 0.5 
C 0.132602 0.5 0.25979 0.447317 0.353553 0.353553 
C 0.447317 0.25979 0.5 0.132602 0.5 0 
C 0.5 -0.132602 0.447317 -0.25979 0.353553 -0.353553 
C 0.25979 -0.447317 0.132602 -0.5 0 -0.5 
C -0.132602 -0.5 -0.25979 -0.447317 -0.353553 -0.353553 
C -0.447317 -0.25979 -0.5 -0.132602 -0.5 0 
C -0.5 0.132602 -0.447317 0.25979 -0.353553 0.353553 
C -0.25979 0.447317 -0.132602 0.5 0 0.5 
z
" style="stroke: #f97306"/>
    </defs>
    <g clip-path="url(#pf8f602bf86)">
     <use xlink:href="#me33ba1cdfe" x="63.388104" y="128.788555" style="fill: #f97306; stroke: #f97306"/>
     <use xlink:href="#me33ba1cdfe" x="74.416599" y="115.027035" style="fill: #f97306; stroke: #f97306"/>
     <use xlink:href="#me33ba1cdfe" x="85.44075" y="123.317311" style="fill: #f97306; stroke: #f97306"/>
     <use xlink:href="#me33ba1cdfe" x="96.471164" y="115.587976" style="fill: #f97306; stroke: #f97306"/>
     <use xlink:href="#me33ba1cdfe" x="107.489515" y="107.86801" style="fill: #f97306; stroke: #f97306"/>
     <use xlink:href="#me33ba1cdfe" x="118.508571" y="109.120979" style="fill: #f97306; stroke: #f97306"/>
     <use xlink:href="#me33ba1cdfe" x="129.525378" y="106.807888" style="fill: #f97306; stroke: #f97306"/>
     <use xlink:href="#me33ba1cdfe" x="140.566599" y="88.382143" style="fill: #f97306; stroke: #f97306"/>
     <use xlink:href="#me33ba1cdfe" x="151.586537" y="86.788297" style="fill: #f97306; stroke: #f97306"/>
     <use xlink:href="#me33ba1cdfe" x="162.614592" y="97.626614" style="fill: #f97306; stroke: #f97306"/>
     <use xlink:href="#me33ba1cdfe" x="173.6355" y="92.401754" style="fill: #f97306; stroke: #f97306"/>
     <use xlink:href="#me33ba1cdfe" x="184.652197" y="102.70925" style="fill: #f97306; stroke: #f97306"/>
     <use xlink:href="#me33ba1cdfe" x="195.686581" y="93.479987" style="fill: #f97306; stroke: #f97306"/>
     <use xlink:href="#me33ba1cdfe" x="206.706475" y="101.286196" style="fill: #f97306; stroke: #f97306"/>
     <use xlink:href="#me33ba1cdfe" x="217.730361" y="108.118022" style="fill: #f97306; stroke: #f97306"/>
     <use xlink:href="#me33ba1cdfe" x="228.757688" y="92.47811" style="fill: #f97306; stroke: #f97306"/>
     <use xlink:href="#me33ba1cdfe" x="239.77176" y="79.901342" style="fill: #f97306; stroke: #f97306"/>
     <use xlink:href="#me33ba1cdfe" x="250.806166" y="83.735527" style="fill: #f97306; stroke: #f97306"/>
     <use xlink:href="#me33ba1cdfe" x="261.829898" y="106.58094" style="fill: #f97306; stroke: #f97306"/>
     <use xlink:href="#me33ba1cdfe" x="272.81424" y="103.286157" style="fill: #f97306; stroke: #f97306"/>
    </g>
   </g>
   <g id="line2d_20">
    <path d="M 63.388104 139.570657 
L 74.416599 111.917932 
L 85.44075 116.874978 
L 96.471164 100.976739 
L 107.489515 91.47611 
L 118.508571 101.119991 
L 129.525378 96.355511 
L 140.566599 64.261215 
L 151.586537 71.951431 
L 162.614592 87.512216 
L 173.6355 73.089293 
L 184.652197 64.540375 
L 195.686581 60.098393 
L 206.706475 73.626142 
L 217.730361 61.087065 
L 228.757688 35.341793 
L 239.77176 59.642512 
L 250.806166 64.887603 
L 261.829898 72.393635 
L 272.81424 82.115646 
" clip-path="url(#pf8f602bf86)" style="fill: none; stroke-dasharray: 11.1,4.8; stroke-dashoffset: 0; stroke: #0343df; stroke-width: 3"/>
    <defs>
     <path id="m2564b03029" d="M -0.5 0.5 
L 0.5 0.5 
L 0.5 -0.5 
L -0.5 -0.5 
z
" style="stroke: #0343df; stroke-linejoin: miter"/>
    </defs>
    <g clip-path="url(#pf8f602bf86)">
     <use xlink:href="#m2564b03029" x="63.388104" y="139.570657" style="fill: #0343df; stroke: #0343df; stroke-linejoin: miter"/>
     <use xlink:href="#m2564b03029" x="74.416599" y="111.917932" style="fill: #0343df; stroke: #0343df; stroke-linejoin: miter"/>
     <use xlink:href="#m2564b03029" x="85.44075" y="116.874978" style="fill: #0343df; stroke: #0343df; stroke-linejoin: miter"/>
     <use xlink:href="#m2564b03029" x="96.471164" y="100.976739" style="fill: #0343df; stroke: #0343df; stroke-linejoin: miter"/>
     <use xlink:href="#m2564b03029" x="107.489515" y="91.47611" style="fill: #0343df; stroke: #0343df; stroke-linejoin: miter"/>
     <use xlink:href="#m2564b03029" x="118.508571" y="101.119991" style="fill: #0343df; stroke: #0343df; stroke-linejoin: miter"/>
     <use xlink:href="#m2564b03029" x="129.525378" y="96.355511" style="fill: #0343df; stroke: #0343df; stroke-linejoin: miter"/>
     <use xlink:href="#m2564b03029" x="140.566599" y="64.261215" style="fill: #0343df; stroke: #0343df; stroke-linejoin: miter"/>
     <use xlink:href="#m2564b03029" x="151.586537" y="71.951431" style="fill: #0343df; stroke: #0343df; stroke-linejoin: miter"/>
     <use xlink:href="#m2564b03029" x="162.614592" y="87.512216" style="fill: #0343df; stroke: #0343df; stroke-linejoin: miter"/>
     <use xlink:href="#m2564b03029" x="173.6355" y="73.089293" style="fill: #0343df; stroke: #0343df; stroke-linejoin: miter"/>
     <use xlink:href="#m2564b03029" x="184.652197" y="64.540375" style="fill: #0343df; stroke: #0343df; stroke-linejoin: miter"/>
     <use xlink:href="#m2564b03029" x="195.686581" y="60.098393" style="fill: #0343df; stroke: #0343df; stroke-linejoin: miter"/>
     <use xlink:href="#m2564b03029" x="206.706475" y="73.626142" style="fill: #0343df; stroke: #0343df; stroke-linejoin: miter"/>
     <use xlink:href="#m2564b03029" x="217.730361" y="61.087065" style="fill: #0343df; stroke: #0343df; stroke-linejoin: miter"/>
     <use xlink:href="#m2564b03029" x="228.757688" y="35.341793" style="fill: #0343df; stroke: #0343df; stroke-linejoin: miter"/>
     <use xlink:href="#m2564b03029" x="239.77176" y="59.642512" style="fill: #0343df; stroke: #0343df; stroke-linejoin: miter"/>
     <use xlink:href="#m2564b03029" x="250.806166" y="64.887603" style="fill: #0343df; stroke: #0343df; stroke-linejoin: miter"/>
     <use xlink:href="#m2564b03029" x="261.829898" y="72.393635" style="fill: #0343df; stroke: #0343df; stroke-linejoin: miter"/>
     <use xlink:href="#m2564b03029" x="272.81424" y="82.115646" style="fill: #0343df; stroke: #0343df; stroke-linejoin: miter"/>
    </g>
   </g>
   <g id="line2d_21">
    <path d="M 63.388104 135.596276 
L 74.416599 114.425951 
L 85.44075 101.42697 
L 96.471164 94.802017 
L 107.489515 103.405081 
L 118.508571 86.758879 
L 129.525378 91.69282 
L 140.566599 81.99873 
L 151.586537 64.358135 
L 162.614592 82.646322 
L 173.6355 70.264364 
L 184.652197 73.183531 
L 195.686581 55.546209 
L 206.706475 66.473546 
L 217.730361 69.285778 
L 228.757688 65.816043 
L 239.77176 46.198728 
L 250.806166 51.670214 
L 261.829898 62.730517 
L 272.81424 61.787647 
" clip-path="url(#pf8f602bf86)" style="fill: none; stroke-dasharray: 19.2,4.8,3,4.8; stroke-dashoffset: 0; stroke: #7e1e9c; stroke-width: 3"/>
    <defs>
     <path id="m8b04ceb2ee" d="M -0.5 0.5 
L 0.5 -0.5 
M -0.5 -0.5 
L 0.5 0.5 
" style="stroke: #7e1e9c"/>
    </defs>
    <g clip-path="url(#pf8f602bf86)">
     <use xlink:href="#m8b04ceb2ee" x="63.388104" y="135.596276" style="fill: #7e1e9c; stroke: #7e1e9c"/>
     <use xlink:href="#m8b04ceb2ee" x="74.416599" y="114.425951" style="fill: #7e1e9c; stroke: #7e1e9c"/>
     <use xlink:href="#m8b04ceb2ee" x="85.44075" y="101.42697" style="fill: #7e1e9c; stroke: #7e1e9c"/>
     <use xlink:href="#m8b04ceb2ee" x="96.471164" y="94.802017" style="fill: #7e1e9c; stroke: #7e1e9c"/>
     <use xlink:href="#m8b04ceb2ee" x="107.489515" y="103.405081" style="fill: #7e1e9c; stroke: #7e1e9c"/>
     <use xlink:href="#m8b04ceb2ee" x="118.508571" y="86.758879" style="fill: #7e1e9c; stroke: #7e1e9c"/>
     <use xlink:href="#m8b04ceb2ee" x="129.525378" y="91.69282" style="fill: #7e1e9c; stroke: #7e1e9c"/>
     <use xlink:href="#m8b04ceb2ee" x="140.566599" y="81.99873" style="fill: #7e1e9c; stroke: #7e1e9c"/>
     <use xlink:href="#m8b04ceb2ee" x="151.586537" y="64.358135" style="fill: #7e1e9c; stroke: #7e1e9c"/>
     <use xlink:href="#m8b04ceb2ee" x="162.614592" y="82.646322" style="fill: #7e1e9c; stroke: #7e1e9c"/>
     <use xlink:href="#m8b04ceb2ee" x="173.6355" y="70.264364" style="fill: #7e1e9c; stroke: #7e1e9c"/>
     <use xlink:href="#m8b04ceb2ee" x="184.652197" y="73.183531" style="fill: #7e1e9c; stroke: #7e1e9c"/>
     <use xlink:href="#m8b04ceb2ee" x="195.686581" y="55.546209" style="fill: #7e1e9c; stroke: #7e1e9c"/>
     <use xlink:href="#m8b04ceb2ee" x="206.706475" y="66.473546" style="fill: #7e1e9c; stroke: #7e1e9c"/>
     <use xlink:href="#m8b04ceb2ee" x="217.730361" y="69.285778" style="fill: #7e1e9c; stroke: #7e1e9c"/>
     <use xlink:href="#m8b04ceb2ee" x="228.757688" y="65.816043" style="fill: #7e1e9c; stroke: #7e1e9c"/>
     <use xlink:href="#m8b04ceb2ee" x="239.77176" y="46.198728" style="fill: #7e1e9c; stroke: #7e1e9c"/>
     <use xlink:href="#m8b04ceb2ee" x="250.806166" y="51.670214" style="fill: #7e1e9c; stroke: #7e1e9c"/>
     <use xlink:href="#m8b04ceb2ee" x="261.829898" y="62.730517" style="fill: #7e1e9c; stroke: #7e1e9c"/>
     <use xlink:href="#m8b04ceb2ee" x="272.81424" y="61.787647" style="fill: #7e1e9c; stroke: #7e1e9c"/>
    </g>
   </g>
   <g id="line2d_22">
    <path d="M 63.388104 132.127683 
L 74.416599 99.874596 
L 85.44075 109.116083 
L 96.471164 88.952195 
L 107.489515 78.919653 
L 118.508571 74.993571 
L 129.525378 90.90308 
L 140.566599 65.714776 
L 151.586537 65.829456 
L 162.614592 80.135925 
L 173.6355 52.340081 
L 184.652197 67.493868 
L 195.686581 44.622336 
L 206.706475 57.484783 
L 217.730361 75.444826 
L 228.757688 53.004613 
L 239.77176 49.886446 
L 250.806166 63.23966 
L 261.829898 71.019374 
L 272.81424 61.94883 
" clip-path="url(#pf8f602bf86)" style="fill: none; stroke-dasharray: 3,4.95; stroke-dashoffset: 0; stroke: #3f9b0b; stroke-width: 3"/>
    <defs>
     <path id="m81833b0210" d="M -0 0.5 
L 0.5 -0.5 
L -0.5 -0.5 
z
" style="stroke: #3f9b0b; stroke-linejoin: miter"/>
    </defs>
    <g clip-path="url(#pf8f602bf86)">
     <use xlink:href="#m81833b0210" x="63.388104" y="132.127683" style="fill: #3f9b0b; stroke: #3f9b0b; stroke-linejoin: miter"/>
     <use xlink:href="#m81833b0210" x="74.416599" y="99.874596" style="fill: #3f9b0b; stroke: #3f9b0b; stroke-linejoin: miter"/>
     <use xlink:href="#m81833b0210" x="85.44075" y="109.116083" style="fill: #3f9b0b; stroke: #3f9b0b; stroke-linejoin: miter"/>
     <use xlink:href="#m81833b0210" x="96.471164" y="88.952195" style="fill: #3f9b0b; stroke: #3f9b0b; stroke-linejoin: miter"/>
     <use xlink:href="#m81833b0210" x="107.489515" y="78.919653" style="fill: #3f9b0b; stroke: #3f9b0b; stroke-linejoin: miter"/>
     <use xlink:href="#m81833b0210" x="118.508571" y="74.993571" style="fill: #3f9b0b; stroke: #3f9b0b; stroke-linejoin: miter"/>
     <use xlink:href="#m81833b0210" x="129.525378" y="90.90308" style="fill: #3f9b0b; stroke: #3f9b0b; stroke-linejoin: miter"/>
     <use xlink:href="#m81833b0210" x="140.566599" y="65.714776" style="fill: #3f9b0b; stroke: #3f9b0b; stroke-linejoin: miter"/>
     <use xlink:href="#m81833b0210" x="151.586537" y="65.829456" style="fill: #3f9b0b; stroke: #3f9b0b; stroke-linejoin: miter"/>
     <use xlink:href="#m81833b0210" x="162.614592" y="80.135925" style="fill: #3f9b0b; stroke: #3f9b0b; stroke-linejoin: miter"/>
     <use xlink:href="#m81833b0210" x="173.6355" y="52.340081" style="fill: #3f9b0b; stroke: #3f9b0b; stroke-linejoin: miter"/>
     <use xlink:href="#m81833b0210" x="184.652197" y="67.493868" style="fill: #3f9b0b; stroke: #3f9b0b; stroke-linejoin: miter"/>
     <use xlink:href="#m81833b0210" x="195.686581" y="44.622336" style="fill: #3f9b0b; stroke: #3f9b0b; stroke-linejoin: miter"/>
     <use xlink:href="#m81833b0210" x="206.706475" y="57.484783" style="fill: #3f9b0b; stroke: #3f9b0b; stroke-linejoin: miter"/>
     <use xlink:href="#m81833b0210" x="217.730361" y="75.444826" style="fill: #3f9b0b; stroke: #3f9b0b; stroke-linejoin: miter"/>
     <use xlink:href="#m81833b0210" x="228.757688" y="53.004613" style="fill: #3f9b0b; stroke: #3f9b0b; stroke-linejoin: miter"/>
     <use xlink:href="#m81833b0210" x="239.77176" y="49.886446" style="fill: #3f9b0b; stroke: #3f9b0b; stroke-linejoin: miter"/>
     <use xlink:href="#m81833b0210" x="250.806166" y="63.23966" style="fill: #3f9b0b; stroke: #3f9b0b; stroke-linejoin: miter"/>
     <use xlink:href="#m81833b0210" x="261.829898" y="71.019374" style="fill: #3f9b0b; stroke: #3f9b0b; stroke-linejoin: miter"/>
     <use xlink:href="#m81833b0210" x="272.81424" y="61.94883" style="fill: #3f9b0b; stroke: #3f9b0b; stroke-linejoin: miter"/>
    </g>
   </g>
   <g id="patch_3">
    <path d="M 52.916797 144.7821 
L 52.916797 30.13035 
" style="fill: none; stroke: #000000; stroke-width: 0.8; stroke-linejoin: miter; stroke-linecap: square"/>
   </g>
   <g id="patch_4">
    <path d="M 52.916797 144.7821 
L 283.285547 144.7821 
" style="fill: none; stroke: #000000; stroke-width: 0.8; stroke-linejoin: miter; stroke-linecap: square"/>
   </g>
   <g id="legend_1">
    <g id="line2d_23">
     <path d="M 57.716797 17.64 
L 75.716797 17.64 
L 93.716797 17.64 
" style="fill: none; stroke: #f97306; stroke-width: 3; stroke-linecap: square"/>
     <g>
      <use xlink:href="#me33ba1cdfe" x="75.716797" y="17.64" style="fill: #f97306; stroke: #f97306"/>
     </g>
    </g>
    <g id="text_12">
     <!-- Gemma -->
     <g transform="translate(103.316797 23.28) scale(0.12 -0.12)">
      <defs>
       <path id="DejaVuSans-47" d="M 3809 666 
L 3809 1919 
L 2778 1919 
L 2778 2438 
L 4434 2438 
L 4434 434 
Q 4069 175 3628 42 
Q 3188 -91 2688 -91 
Q 1594 -91 976 548 
Q 359 1188 359 2328 
Q 359 3472 976 4111 
Q 1594 4750 2688 4750 
Q 3144 4750 3555 4637 
Q 3966 4525 4313 4306 
L 4313 3634 
Q 3963 3931 3569 4081 
Q 3175 4231 2741 4231 
Q 1884 4231 1454 3753 
Q 1025 3275 1025 2328 
Q 1025 1384 1454 906 
Q 1884 428 2741 428 
Q 3075 428 3337 486 
Q 3600 544 3809 666 
z
" transform="scale(0.015625)"/>
       <path id="DejaVuSans-65" d="M 3597 1894 
L 3597 1613 
L 953 1613 
Q 991 1019 1311 708 
Q 1631 397 2203 397 
Q 2534 397 2845 478 
Q 3156 559 3463 722 
L 3463 178 
Q 3153 47 2828 -22 
Q 2503 -91 2169 -91 
Q 1331 -91 842 396 
Q 353 884 353 1716 
Q 353 2575 817 3079 
Q 1281 3584 2069 3584 
Q 2775 3584 3186 3129 
Q 3597 2675 3597 1894 
z
M 3022 2063 
Q 3016 2534 2758 2815 
Q 2500 3097 2075 3097 
Q 1594 3097 1305 2825 
Q 1016 2553 972 2059 
L 3022 2063 
z
" transform="scale(0.015625)"/>
       <path id="DejaVuSans-6d" d="M 3328 2828 
Q 3544 3216 3844 3400 
Q 4144 3584 4550 3584 
Q 5097 3584 5394 3201 
Q 5691 2819 5691 2113 
L 5691 0 
L 5113 0 
L 5113 2094 
Q 5113 2597 4934 2840 
Q 4756 3084 4391 3084 
Q 3944 3084 3684 2787 
Q 3425 2491 3425 1978 
L 3425 0 
L 2847 0 
L 2847 2094 
Q 2847 2600 2669 2842 
Q 2491 3084 2119 3084 
Q 1678 3084 1418 2786 
Q 1159 2488 1159 1978 
L 1159 0 
L 581 0 
L 581 3500 
L 1159 3500 
L 1159 2956 
Q 1356 3278 1631 3431 
Q 1906 3584 2284 3584 
Q 2666 3584 2933 3390 
Q 3200 3197 3328 2828 
z
" transform="scale(0.015625)"/>
       <path id="DejaVuSans-61" d="M 2194 1759 
Q 1497 1759 1228 1600 
Q 959 1441 959 1056 
Q 959 750 1161 570 
Q 1363 391 1709 391 
Q 2188 391 2477 730 
Q 2766 1069 2766 1631 
L 2766 1759 
L 2194 1759 
z
M 3341 1997 
L 3341 0 
L 2766 0 
L 2766 531 
Q 2569 213 2275 61 
Q 1981 -91 1556 -91 
Q 1019 -91 701 211 
Q 384 513 384 1019 
Q 384 1609 779 1909 
Q 1175 2209 1959 2209 
L 2766 2209 
L 2766 2266 
Q 2766 2663 2505 2880 
Q 2244 3097 1772 3097 
Q 1472 3097 1187 3025 
Q 903 2953 641 2809 
L 641 3341 
Q 956 3463 1253 3523 
Q 1550 3584 1831 3584 
Q 2591 3584 2966 3190 
Q 3341 2797 3341 1997 
z
" transform="scale(0.015625)"/>
      </defs>
      <use xlink:href="#DejaVuSans-47"/>
      <use xlink:href="#DejaVuSans-65" x="77.490234"/>
      <use xlink:href="#DejaVuSans-6d" x="139.013672"/>
      <use xlink:href="#DejaVuSans-6d" x="236.425781"/>
      <use xlink:href="#DejaVuSans-61" x="333.837891"/>
     </g>
    </g>
    <g id="line2d_24">
     <path d="M 57.716797 37.08 
L 75.716797 37.08 
L 93.716797 37.08 
" style="fill: none; stroke-dasharray: 11.1,4.8; stroke-dashoffset: 0; stroke: #0343df; stroke-width: 3"/>
     <g>
      <use xlink:href="#m2564b03029" x="75.716797" y="37.08" style="fill: #0343df; stroke: #0343df; stroke-linejoin: miter"/>
     </g>
    </g>
    <g id="text_13">
     <!-- ConWeave -->
     <g transform="translate(103.316797 42.72) scale(0.12 -0.12)">
      <defs>
       <path id="DejaVuSans-43" d="M 4122 4306 
L 4122 3641 
Q 3803 3938 3442 4084 
Q 3081 4231 2675 4231 
Q 1875 4231 1450 3742 
Q 1025 3253 1025 2328 
Q 1025 1406 1450 917 
Q 1875 428 2675 428 
Q 3081 428 3442 575 
Q 3803 722 4122 1019 
L 4122 359 
Q 3791 134 3420 21 
Q 3050 -91 2638 -91 
Q 1578 -91 968 557 
Q 359 1206 359 2328 
Q 359 3453 968 4101 
Q 1578 4750 2638 4750 
Q 3056 4750 3426 4639 
Q 3797 4528 4122 4306 
z
" transform="scale(0.015625)"/>
       <path id="DejaVuSans-6f" d="M 1959 3097 
Q 1497 3097 1228 2736 
Q 959 2375 959 1747 
Q 959 1119 1226 758 
Q 1494 397 1959 397 
Q 2419 397 2687 759 
Q 2956 1122 2956 1747 
Q 2956 2369 2687 2733 
Q 2419 3097 1959 3097 
z
M 1959 3584 
Q 2709 3584 3137 3096 
Q 3566 2609 3566 1747 
Q 3566 888 3137 398 
Q 2709 -91 1959 -91 
Q 1206 -91 779 398 
Q 353 888 353 1747 
Q 353 2609 779 3096 
Q 1206 3584 1959 3584 
z
" transform="scale(0.015625)"/>
       <path id="DejaVuSans-6e" d="M 3513 2113 
L 3513 0 
L 2938 0 
L 2938 2094 
Q 2938 2591 2744 2837 
Q 2550 3084 2163 3084 
Q 1697 3084 1428 2787 
Q 1159 2491 1159 1978 
L 1159 0 
L 581 0 
L 581 3500 
L 1159 3500 
L 1159 2956 
Q 1366 3272 1645 3428 
Q 1925 3584 2291 3584 
Q 2894 3584 3203 3211 
Q 3513 2838 3513 2113 
z
" transform="scale(0.015625)"/>
       <path id="DejaVuSans-57" d="M 213 4666 
L 850 4666 
L 1831 722 
L 2809 4666 
L 3519 4666 
L 4500 722 
L 5478 4666 
L 6119 4666 
L 4947 0 
L 4153 0 
L 3169 4050 
L 2175 0 
L 1381 0 
L 213 4666 
z
" transform="scale(0.015625)"/>
       <path id="DejaVuSans-76" d="M 191 3500 
L 800 3500 
L 1894 563 
L 2988 3500 
L 3597 3500 
L 2284 0 
L 1503 0 
L 191 3500 
z
" transform="scale(0.015625)"/>
      </defs>
      <use xlink:href="#DejaVuSans-43"/>
      <use xlink:href="#DejaVuSans-6f" x="69.824219"/>
      <use xlink:href="#DejaVuSans-6e" x="131.005859"/>
      <use xlink:href="#DejaVuSans-57" x="194.384766"/>
      <use xlink:href="#DejaVuSans-65" x="287.386719"/>
      <use xlink:href="#DejaVuSans-61" x="348.910156"/>
      <use xlink:href="#DejaVuSans-76" x="410.189453"/>
      <use xlink:href="#DejaVuSans-65" x="469.369141"/>
     </g>
    </g>
    <g id="line2d_25">
     <path d="M 176.627422 17.64 
L 194.627422 17.64 
L 212.627422 17.64 
" style="fill: none; stroke-dasharray: 19.2,4.8,3,4.8; stroke-dashoffset: 0; stroke: #7e1e9c; stroke-width: 3"/>
     <g>
      <use xlink:href="#m8b04ceb2ee" x="194.627422" y="17.64" style="fill: #7e1e9c; stroke: #7e1e9c"/>
     </g>
    </g>
    <g id="text_14">
     <!-- CONGA -->
     <g transform="translate(222.227422 23.28) scale(0.12 -0.12)">
      <defs>
       <path id="DejaVuSans-4f" d="M 2522 4238 
Q 1834 4238 1429 3725 
Q 1025 3213 1025 2328 
Q 1025 1447 1429 934 
Q 1834 422 2522 422 
Q 3209 422 3611 934 
Q 4013 1447 4013 2328 
Q 4013 3213 3611 3725 
Q 3209 4238 2522 4238 
z
M 2522 4750 
Q 3503 4750 4090 4092 
Q 4678 3434 4678 2328 
Q 4678 1225 4090 567 
Q 3503 -91 2522 -91 
Q 1538 -91 948 565 
Q 359 1222 359 2328 
Q 359 3434 948 4092 
Q 1538 4750 2522 4750 
z
" transform="scale(0.015625)"/>
       <path id="DejaVuSans-4e" d="M 628 4666 
L 1478 4666 
L 3547 763 
L 3547 4666 
L 4159 4666 
L 4159 0 
L 3309 0 
L 1241 3903 
L 1241 0 
L 628 0 
L 628 4666 
z
" transform="scale(0.015625)"/>
       <path id="DejaVuSans-41" d="M 2188 4044 
L 1331 1722 
L 3047 1722 
L 2188 4044 
z
M 1831 4666 
L 2547 4666 
L 4325 0 
L 3669 0 
L 3244 1197 
L 1141 1197 
L 716 0 
L 50 0 
L 1831 4666 
z
" transform="scale(0.015625)"/>
      </defs>
      <use xlink:href="#DejaVuSans-43"/>
      <use xlink:href="#DejaVuSans-4f" x="69.824219"/>
      <use xlink:href="#DejaVuSans-4e" x="148.535156"/>
      <use xlink:href="#DejaVuSans-47" x="223.339844"/>
      <use xlink:href="#DejaVuSans-41" x="300.830078"/>
     </g>
    </g>
    <g id="line2d_26">
     <path d="M 176.627422 37.08 
L 194.627422 37.08 
L 212.627422 37.08 
" style="fill: none; stroke-dasharray: 3,4.95; stroke-dashoffset: 0; stroke: #3f9b0b; stroke-width: 3"/>
     <g>
      <use xlink:href="#m81833b0210" x="194.627422" y="37.08" style="fill: #3f9b0b; stroke: #3f9b0b; stroke-linejoin: miter"/>
     </g>
    </g>
    <g id="text_15">
     <!-- ECMP -->
     <g transform="translate(222.227422 42.72) scale(0.12 -0.12)">
      <defs>
       <path id="DejaVuSans-45" d="M 628 4666 
L 3578 4666 
L 3578 4134 
L 1259 4134 
L 1259 2753 
L 3481 2753 
L 3481 2222 
L 1259 2222 
L 1259 531 
L 3634 531 
L 3634 0 
L 628 0 
L 628 4666 
z
" transform="scale(0.015625)"/>
       <path id="DejaVuSans-4d" d="M 628 4666 
L 1569 4666 
L 2759 1491 
L 3956 4666 
L 4897 4666 
L 4897 0 
L 4281 0 
L 4281 4097 
L 3078 897 
L 2444 897 
L 1241 4097 
L 1241 0 
L 628 0 
L 628 4666 
z
" transform="scale(0.015625)"/>
       <path id="DejaVuSans-50" d="M 1259 4147 
L 1259 2394 
L 2053 2394 
Q 2494 2394 2734 2622 
Q 2975 2850 2975 3272 
Q 2975 3691 2734 3919 
Q 2494 4147 2053 4147 
L 1259 4147 
z
M 628 4666 
L 2053 4666 
Q 2838 4666 3239 4311 
Q 3641 3956 3641 3272 
Q 3641 2581 3239 2228 
Q 2838 1875 2053 1875 
L 1259 1875 
L 1259 0 
L 628 0 
L 628 4666 
z
" transform="scale(0.015625)"/>
      </defs>
      <use xlink:href="#DejaVuSans-45"/>
      <use xlink:href="#DejaVuSans-43" x="63.183594"/>
      <use xlink:href="#DejaVuSans-4d" x="133.007812"/>
      <use xlink:href="#DejaVuSans-50" x="219.287109"/>
     </g>
    </g>
   </g>
  </g>
 </g>
 <defs>
  <clipPath id="pf8f602bf86">
   <rect x="52.916797" y="30.13035" width="230.36875" height="114.65175"/>
  </clipPath>
 </defs>
</svg>
