<?xml version="1.0" encoding="utf-8" standalone="no"?>
<!DOCTYPE svg PUBLIC "-//W3C//DTD SVG 1.1//EN"
  "http://www.w3.org/Graphics/SVG/1.1/DTD/svg11.dtd">
<svg xmlns:xlink="http://www.w3.org/1999/xlink" width="281.017444pt" height="264.511878pt" viewBox="0 0 281.017444 264.511878" xmlns="http://www.w3.org/2000/svg" version="1.1">
 <metadata>
  <rdf:RDF xmlns:dc="http://purl.org/dc/elements/1.1/" xmlns:cc="http://creativecommons.org/ns#" xmlns:rdf="http://www.w3.org/1999/02/22-rdf-syntax-ns#">
   <cc:Work>
    <dc:type rdf:resource="http://purl.org/dc/dcmitype/StillImage"/>
    <dc:date>2024-04-09T13:44:03.771036</dc:date>
    <dc:format>image/svg+xml</dc:format>
    <dc:creator>
     <cc:Agent>
      <dc:title>Matplotlib v3.8.2, https://matplotlib.org/</dc:title>
     </cc:Agent>
    </dc:creator>
   </cc:Work>
  </rdf:RDF>
 </metadata>
 <defs>
  <style type="text/css">*{stroke-linejoin: round; stroke-linecap: butt}</style>
 </defs>
 <g id="figure_1">
  <g id="patch_1">
   <path d="M 0 264.511878 
L 281.017444 264.511878 
L 281.017444 0 
L 0 0 
z
" style="fill: #ffffff"/>
  </g>
  <g id="axes_1">
   <g id="patch_2">
    <path d="M 51.730859 207.200898 
L 270.610966 207.200898 
L 270.610966 40.533483 
L 51.730859 40.533483 
z
" style="fill: #ffffff"/>
   </g>
   <g id="matplotlib.axis_1">
    <g id="xtick_1">
     <g id="line2d_1">
      <path d="M 51.730859 207.200898 
L 51.730859 40.533483 
" clip-path="url(#p33ba716bf7)" style="fill: none; stroke: #b0b0b0; stroke-opacity: 0.5; stroke-width: 0.8; stroke-linecap: square"/>
     </g>
     <g id="line2d_2">
      <defs>
       <path id="mce1385b2b6" d="M 0 0 
L 0 3.5 
" style="stroke: #000000; stroke-width: 0.8"/>
      </defs>
      <g>
       <use xlink:href="#mce1385b2b6" x="51.730859" y="207.200898" style="stroke: #000000; stroke-width: 0.8"/>
      </g>
     </g>
     <g id="text_1">
      <!-- 0 -->
      <g transform="translate(51.034408 224.606899) rotate(-40) scale(0.105 -0.105)">
       <defs>
        <path id="DejaVuSans-30" d="M 2034 4250 
Q 1547 4250 1301 3770 
Q 1056 3291 1056 2328 
Q 1056 1369 1301 889 
Q 1547 409 2034 409 
Q 2525 409 2770 889 
Q 3016 1369 3016 2328 
Q 3016 3291 2770 3770 
Q 2525 4250 2034 4250 
z
M 2034 4750 
Q 2819 4750 3233 4129 
Q 3647 3509 3647 2328 
Q 3647 1150 3233 529 
Q 2819 -91 2034 -91 
Q 1250 -91 836 529 
Q 422 1150 422 2328 
Q 422 3509 836 4129 
Q 1250 4750 2034 4750 
z
" transform="scale(0.015625)"/>
       </defs>
       <use xlink:href="#DejaVuSans-30"/>
      </g>
     </g>
    </g>
    <g id="xtick_2">
     <g id="line2d_3">
      <path d="M 72.626335 207.200898 
L 72.626335 40.533483 
" clip-path="url(#p33ba716bf7)" style="fill: none; stroke: #b0b0b0; stroke-opacity: 0.5; stroke-width: 0.8; stroke-linecap: square"/>
     </g>
     <g id="line2d_4">
      <g>
       <use xlink:href="#mce1385b2b6" x="72.626335" y="207.200898" style="stroke: #000000; stroke-width: 0.8"/>
      </g>
     </g>
     <g id="text_2">
      <!-- 1.8K -->
      <g transform="translate(65.455522 235.472169) rotate(-40) scale(0.105 -0.105)">
       <defs>
        <path id="DejaVuSans-31" d="M 794 531 
L 1825 531 
L 1825 4091 
L 703 3866 
L 703 4441 
L 1819 4666 
L 2450 4666 
L 2450 531 
L 3481 531 
L 3481 0 
L 794 0 
L 794 531 
z
" transform="scale(0.015625)"/>
        <path id="DejaVuSans-2e" d="M 684 794 
L 1344 794 
L 1344 0 
L 684 0 
L 684 794 
z
" transform="scale(0.015625)"/>
        <path id="DejaVuSans-38" d="M 2034 2216 
Q 1584 2216 1326 1975 
Q 1069 1734 1069 1313 
Q 1069 891 1326 650 
Q 1584 409 2034 409 
Q 2484 409 2743 651 
Q 3003 894 3003 1313 
Q 3003 1734 2745 1975 
Q 2488 2216 2034 2216 
z
M 1403 2484 
Q 997 2584 770 2862 
Q 544 3141 544 3541 
Q 544 4100 942 4425 
Q 1341 4750 2034 4750 
Q 2731 4750 3128 4425 
Q 3525 4100 3525 3541 
Q 3525 3141 3298 2862 
Q 3072 2584 2669 2484 
Q 3125 2378 3379 2068 
Q 3634 1759 3634 1313 
Q 3634 634 3220 271 
Q 2806 -91 2034 -91 
Q 1263 -91 848 271 
Q 434 634 434 1313 
Q 434 1759 690 2068 
Q 947 2378 1403 2484 
z
M 1172 3481 
Q 1172 3119 1398 2916 
Q 1625 2713 2034 2713 
Q 2441 2713 2670 2916 
Q 2900 3119 2900 3481 
Q 2900 3844 2670 4047 
Q 2441 4250 2034 4250 
Q 1625 4250 1398 4047 
Q 1172 3844 1172 3481 
z
" transform="scale(0.015625)"/>
        <path id="DejaVuSans-4b" d="M 628 4666 
L 1259 4666 
L 1259 2694 
L 3353 4666 
L 4166 4666 
L 1850 2491 
L 4331 0 
L 3500 0 
L 1259 2247 
L 1259 0 
L 628 0 
L 628 4666 
z
" transform="scale(0.015625)"/>
       </defs>
       <use xlink:href="#DejaVuSans-31"/>
       <use xlink:href="#DejaVuSans-2e" x="63.623047"/>
       <use xlink:href="#DejaVuSans-38" x="95.410156"/>
       <use xlink:href="#DejaVuSans-4b" x="159.033203"/>
      </g>
     </g>
    </g>
    <g id="xtick_3">
     <g id="line2d_5">
      <path d="M 93.521811 207.200898 
L 93.521811 40.533483 
" clip-path="url(#p33ba716bf7)" style="fill: none; stroke: #b0b0b0; stroke-opacity: 0.5; stroke-width: 0.8; stroke-linecap: square"/>
     </g>
     <g id="line2d_6">
      <g>
       <use xlink:href="#mce1385b2b6" x="93.521811" y="207.200898" style="stroke: #000000; stroke-width: 0.8"/>
      </g>
     </g>
     <g id="text_3">
      <!-- 3.7K -->
      <g transform="translate(86.350997 235.472169) rotate(-40) scale(0.105 -0.105)">
       <defs>
        <path id="DejaVuSans-33" d="M 2597 2516 
Q 3050 2419 3304 2112 
Q 3559 1806 3559 1356 
Q 3559 666 3084 287 
Q 2609 -91 1734 -91 
Q 1441 -91 1130 -33 
Q 819 25 488 141 
L 488 750 
Q 750 597 1062 519 
Q 1375 441 1716 441 
Q 2309 441 2620 675 
Q 2931 909 2931 1356 
Q 2931 1769 2642 2001 
Q 2353 2234 1838 2234 
L 1294 2234 
L 1294 2753 
L 1863 2753 
Q 2328 2753 2575 2939 
Q 2822 3125 2822 3475 
Q 2822 3834 2567 4026 
Q 2313 4219 1838 4219 
Q 1578 4219 1281 4162 
Q 984 4106 628 3988 
L 628 4550 
Q 988 4650 1302 4700 
Q 1616 4750 1894 4750 
Q 2613 4750 3031 4423 
Q 3450 4097 3450 3541 
Q 3450 3153 3228 2886 
Q 3006 2619 2597 2516 
z
" transform="scale(0.015625)"/>
        <path id="DejaVuSans-37" d="M 525 4666 
L 3525 4666 
L 3525 4397 
L 1831 0 
L 1172 0 
L 2766 4134 
L 525 4134 
L 525 4666 
z
" transform="scale(0.015625)"/>
       </defs>
       <use xlink:href="#DejaVuSans-33"/>
       <use xlink:href="#DejaVuSans-2e" x="63.623047"/>
       <use xlink:href="#DejaVuSans-37" x="95.410156"/>
       <use xlink:href="#DejaVuSans-4b" x="159.033203"/>
      </g>
     </g>
    </g>
    <g id="xtick_4">
     <g id="line2d_7">
      <path d="M 114.417286 207.200898 
L 114.417286 40.533483 
" clip-path="url(#p33ba716bf7)" style="fill: none; stroke: #b0b0b0; stroke-opacity: 0.5; stroke-width: 0.8; stroke-linecap: square"/>
     </g>
     <g id="line2d_8">
      <g>
       <use xlink:href="#mce1385b2b6" x="114.417286" y="207.200898" style="stroke: #000000; stroke-width: 0.8"/>
      </g>
     </g>
     <g id="text_4">
      <!-- 4.7K -->
      <g transform="translate(107.246473 235.472169) rotate(-40) scale(0.105 -0.105)">
       <defs>
        <path id="DejaVuSans-34" d="M 2419 4116 
L 825 1625 
L 2419 1625 
L 2419 4116 
z
M 2253 4666 
L 3047 4666 
L 3047 1625 
L 3713 1625 
L 3713 1100 
L 3047 1100 
L 3047 0 
L 2419 0 
L 2419 1100 
L 313 1100 
L 313 1709 
L 2253 4666 
z
" transform="scale(0.015625)"/>
       </defs>
       <use xlink:href="#DejaVuSans-34"/>
       <use xlink:href="#DejaVuSans-2e" x="63.623047"/>
       <use xlink:href="#DejaVuSans-37" x="95.410156"/>
       <use xlink:href="#DejaVuSans-4b" x="159.033203"/>
      </g>
     </g>
    </g>
    <g id="xtick_5">
     <g id="line2d_9">
      <path d="M 135.312762 207.200898 
L 135.312762 40.533483 
" clip-path="url(#p33ba716bf7)" style="fill: none; stroke: #b0b0b0; stroke-opacity: 0.5; stroke-width: 0.8; stroke-linecap: square"/>
     </g>
     <g id="line2d_10">
      <g>
       <use xlink:href="#mce1385b2b6" x="135.312762" y="207.200898" style="stroke: #000000; stroke-width: 0.8"/>
      </g>
     </g>
     <g id="text_5">
      <!-- 5.6K -->
      <g transform="translate(128.141948 235.472169) rotate(-40) scale(0.105 -0.105)">
       <defs>
        <path id="DejaVuSans-35" d="M 691 4666 
L 3169 4666 
L 3169 4134 
L 1269 4134 
L 1269 2991 
Q 1406 3038 1543 3061 
Q 1681 3084 1819 3084 
Q 2600 3084 3056 2656 
Q 3513 2228 3513 1497 
Q 3513 744 3044 326 
Q 2575 -91 1722 -91 
Q 1428 -91 1123 -41 
Q 819 9 494 109 
L 494 744 
Q 775 591 1075 516 
Q 1375 441 1709 441 
Q 2250 441 2565 725 
Q 2881 1009 2881 1497 
Q 2881 1984 2565 2268 
Q 2250 2553 1709 2553 
Q 1456 2553 1204 2497 
Q 953 2441 691 2322 
L 691 4666 
z
" transform="scale(0.015625)"/>
        <path id="DejaVuSans-36" d="M 2113 2584 
Q 1688 2584 1439 2293 
Q 1191 2003 1191 1497 
Q 1191 994 1439 701 
Q 1688 409 2113 409 
Q 2538 409 2786 701 
Q 3034 994 3034 1497 
Q 3034 2003 2786 2293 
Q 2538 2584 2113 2584 
z
M 3366 4563 
L 3366 3988 
Q 3128 4100 2886 4159 
Q 2644 4219 2406 4219 
Q 1781 4219 1451 3797 
Q 1122 3375 1075 2522 
Q 1259 2794 1537 2939 
Q 1816 3084 2150 3084 
Q 2853 3084 3261 2657 
Q 3669 2231 3669 1497 
Q 3669 778 3244 343 
Q 2819 -91 2113 -91 
Q 1303 -91 875 529 
Q 447 1150 447 2328 
Q 447 3434 972 4092 
Q 1497 4750 2381 4750 
Q 2619 4750 2861 4703 
Q 3103 4656 3366 4563 
z
" transform="scale(0.015625)"/>
       </defs>
       <use xlink:href="#DejaVuSans-35"/>
       <use xlink:href="#DejaVuSans-2e" x="63.623047"/>
       <use xlink:href="#DejaVuSans-36" x="95.410156"/>
       <use xlink:href="#DejaVuSans-4b" x="159.033203"/>
      </g>
     </g>
    </g>
    <g id="xtick_6">
     <g id="line2d_11">
      <path d="M 156.208237 207.200898 
L 156.208237 40.533483 
" clip-path="url(#p33ba716bf7)" style="fill: none; stroke: #b0b0b0; stroke-opacity: 0.5; stroke-width: 0.8; stroke-linecap: square"/>
     </g>
     <g id="line2d_12">
      <g>
       <use xlink:href="#mce1385b2b6" x="156.208237" y="207.200898" style="stroke: #000000; stroke-width: 0.8"/>
      </g>
     </g>
     <g id="text_6">
      <!-- 6.5K -->
      <g transform="translate(149.037424 235.472169) rotate(-40) scale(0.105 -0.105)">
       <use xlink:href="#DejaVuSans-36"/>
       <use xlink:href="#DejaVuSans-2e" x="63.623047"/>
       <use xlink:href="#DejaVuSans-35" x="95.410156"/>
       <use xlink:href="#DejaVuSans-4b" x="159.033203"/>
      </g>
     </g>
    </g>
    <g id="xtick_7">
     <g id="line2d_13">
      <path d="M 177.103713 207.200898 
L 177.103713 40.533483 
" clip-path="url(#p33ba716bf7)" style="fill: none; stroke: #b0b0b0; stroke-opacity: 0.5; stroke-width: 0.8; stroke-linecap: square"/>
     </g>
     <g id="line2d_14">
      <g>
       <use xlink:href="#mce1385b2b6" x="177.103713" y="207.200898" style="stroke: #000000; stroke-width: 0.8"/>
      </g>
     </g>
     <g id="text_7">
      <!-- 7.4K -->
      <g transform="translate(169.9329 235.472169) rotate(-40) scale(0.105 -0.105)">
       <use xlink:href="#DejaVuSans-37"/>
       <use xlink:href="#DejaVuSans-2e" x="63.623047"/>
       <use xlink:href="#DejaVuSans-34" x="95.410156"/>
       <use xlink:href="#DejaVuSans-4b" x="159.033203"/>
      </g>
     </g>
    </g>
    <g id="xtick_8">
     <g id="line2d_15">
      <path d="M 197.999189 207.200898 
L 197.999189 40.533483 
" clip-path="url(#p33ba716bf7)" style="fill: none; stroke: #b0b0b0; stroke-opacity: 0.5; stroke-width: 0.8; stroke-linecap: square"/>
     </g>
     <g id="line2d_16">
      <g>
       <use xlink:href="#mce1385b2b6" x="197.999189" y="207.200898" style="stroke: #000000; stroke-width: 0.8"/>
      </g>
     </g>
     <g id="text_8">
      <!-- 11K -->
      <g transform="translate(192.106532 233.327167) rotate(-40) scale(0.105 -0.105)">
       <use xlink:href="#DejaVuSans-31"/>
       <use xlink:href="#DejaVuSans-31" x="63.623047"/>
       <use xlink:href="#DejaVuSans-4b" x="127.246094"/>
      </g>
     </g>
    </g>
    <g id="xtick_9">
     <g id="line2d_17">
      <path d="M 218.894664 207.200898 
L 218.894664 40.533483 
" clip-path="url(#p33ba716bf7)" style="fill: none; stroke: #b0b0b0; stroke-opacity: 0.5; stroke-width: 0.8; stroke-linecap: square"/>
     </g>
     <g id="line2d_18">
      <g>
       <use xlink:href="#mce1385b2b6" x="218.894664" y="207.200898" style="stroke: #000000; stroke-width: 0.8"/>
      </g>
     </g>
     <g id="text_9">
      <!-- 20K -->
      <g transform="translate(213.002008 233.327167) rotate(-40) scale(0.105 -0.105)">
       <defs>
        <path id="DejaVuSans-32" d="M 1228 531 
L 3431 531 
L 3431 0 
L 469 0 
L 469 531 
Q 828 903 1448 1529 
Q 2069 2156 2228 2338 
Q 2531 2678 2651 2914 
Q 2772 3150 2772 3378 
Q 2772 3750 2511 3984 
Q 2250 4219 1831 4219 
Q 1534 4219 1204 4116 
Q 875 4013 500 3803 
L 500 4441 
Q 881 4594 1212 4672 
Q 1544 4750 1819 4750 
Q 2544 4750 2975 4387 
Q 3406 4025 3406 3419 
Q 3406 3131 3298 2873 
Q 3191 2616 2906 2266 
Q 2828 2175 2409 1742 
Q 1991 1309 1228 531 
z
" transform="scale(0.015625)"/>
       </defs>
       <use xlink:href="#DejaVuSans-32"/>
       <use xlink:href="#DejaVuSans-30" x="63.623047"/>
       <use xlink:href="#DejaVuSans-4b" x="127.246094"/>
      </g>
     </g>
    </g>
    <g id="xtick_10">
     <g id="line2d_19">
      <path d="M 239.79014 207.200898 
L 239.79014 40.533483 
" clip-path="url(#p33ba716bf7)" style="fill: none; stroke: #b0b0b0; stroke-opacity: 0.5; stroke-width: 0.8; stroke-linecap: square"/>
     </g>
     <g id="line2d_20">
      <g>
       <use xlink:href="#mce1385b2b6" x="239.79014" y="207.200898" style="stroke: #000000; stroke-width: 0.8"/>
      </g>
     </g>
     <g id="text_10">
      <!-- 65K -->
      <g transform="translate(233.897484 233.327167) rotate(-40) scale(0.105 -0.105)">
       <use xlink:href="#DejaVuSans-36"/>
       <use xlink:href="#DejaVuSans-35" x="63.623047"/>
       <use xlink:href="#DejaVuSans-4b" x="127.246094"/>
      </g>
     </g>
    </g>
    <g id="xtick_11">
     <g id="line2d_21">
      <path d="M 260.685615 207.200898 
L 260.685615 40.533483 
" clip-path="url(#p33ba716bf7)" style="fill: none; stroke: #b0b0b0; stroke-opacity: 0.5; stroke-width: 0.8; stroke-linecap: square"/>
     </g>
     <g id="line2d_22">
      <g>
       <use xlink:href="#mce1385b2b6" x="260.685615" y="207.200898" style="stroke: #000000; stroke-width: 0.8"/>
      </g>
     </g>
     <g id="text_11">
      <!-- 2.0M -->
      <g transform="translate(252.682178 236.869479) rotate(-40) scale(0.105 -0.105)">
       <defs>
        <path id="DejaVuSans-4d" d="M 628 4666 
L 1569 4666 
L 2759 1491 
L 3956 4666 
L 4897 4666 
L 4897 0 
L 4281 0 
L 4281 4097 
L 3078 897 
L 2444 897 
L 1241 4097 
L 1241 0 
L 628 0 
L 628 4666 
z
" transform="scale(0.015625)"/>
       </defs>
       <use xlink:href="#DejaVuSans-32"/>
       <use xlink:href="#DejaVuSans-2e" x="63.623047"/>
       <use xlink:href="#DejaVuSans-30" x="95.410156"/>
       <use xlink:href="#DejaVuSans-4d" x="159.033203"/>
      </g>
     </g>
    </g>
    <g id="text_12">
     <!-- 流大小 (B) -->
     <g transform="translate(128.409975 254.833284) scale(0.145 -0.145)">
      <defs>
       <path id="WenQuanYiZenHei-6d41" d="M 5338 -663 
Q 5031 -663 4865 -484 
Q 4700 -306 4700 -31 
L 4700 1319 
Q 4700 1756 4681 2194 
Q 4919 2169 5150 2194 
Q 5131 1756 5131 1319 
L 5131 -31 
Q 5131 -138 5190 -216 
Q 5250 -294 5344 -294 
L 5663 -294 
Q 5725 -294 5738 -244 
Q 5750 -125 5744 13 
L 5856 725 
Q 6050 606 6275 600 
L 6100 -300 
L 6088 -544 
Q 6081 -588 6053 -625 
Q 6025 -663 5975 -663 
L 5338 -663 
z
M 4063 -763 
Q 3825 -738 3588 -763 
Q 3613 -331 3613 106 
L 3613 1319 
Q 3613 1756 3588 2194 
Q 3825 2169 4063 2194 
Q 4038 1756 4038 1319 
L 4038 106 
Q 4038 -331 4063 -763 
z
M 2581 844 
L 2581 1319 
Q 2581 1756 2556 2194 
Q 2794 2169 3031 2194 
Q 3006 1756 3006 1319 
L 3006 844 
Q 3006 294 2684 -150 
Q 2363 -594 1863 -788 
Q 1794 -538 1569 -400 
Q 2019 -306 2300 47 
Q 2581 400 2581 844 
z
M 5925 4650 
Q 5906 4481 5925 4313 
Q 5613 4325 5300 4325 
L 3700 4325 
Q 3813 4275 3931 4244 
Q 3888 4138 3809 4019 
Q 3731 3900 3418 3497 
Q 3106 3094 2994 2969 
L 4750 3106 
Q 4513 3400 4263 3675 
L 4619 3994 
Q 5175 3363 5663 2681 
L 5281 2406 
L 4963 2831 
L 4700 2825 
L 2325 2600 
L 2300 2906 
Q 2406 2913 2537 3025 
Q 2669 3138 2987 3578 
Q 3306 4019 3419 4325 
L 2806 4325 
Q 2500 4325 2188 4313 
Q 2200 4481 2188 4650 
Q 2494 4631 2806 4631 
L 3719 4631 
L 3225 5069 
L 3538 5425 
L 4200 4838 
L 4019 4631 
L 5300 4631 
Q 5613 4631 5925 4650 
z
M 888 -738 
Q 644 -588 281 -575 
Q 538 -69 813 581 
Q 1088 1231 1613 2838 
L 1856 2706 
L 1175 338 
L 888 -738 
z
M 1356 2856 
L 981 2550 
L 100 3400 
L 475 3713 
L 1356 2856 
z
M 1463 3913 
Q 1056 4388 575 4800 
L 931 5125 
Q 1438 4688 1869 4188 
L 1463 3913 
z
" transform="scale(0.015625)"/>
       <path id="WenQuanYiZenHei-5927" d="M 1281 3069 
Q 863 3069 438 3050 
Q 463 3275 438 3506 
Q 863 3488 1281 3488 
L 2931 3488 
L 2931 4300 
Q 2931 4781 2906 5263 
Q 3163 5231 3425 5263 
Q 3400 4781 3400 4300 
L 3400 3488 
L 5188 3488 
Q 5606 3488 6025 3506 
Q 6000 3275 6025 3050 
Q 5606 3069 5188 3069 
L 3481 3069 
Q 3894 1500 4863 550 
Q 5431 25 6156 -313 
Q 5906 -438 5788 -694 
Q 4919 -269 4284 515 
Q 3650 1300 3281 2294 
Q 3038 1256 2350 443 
Q 1663 -369 700 -775 
Q 556 -475 231 -413 
Q 1394 -50 2119 903 
Q 2844 1856 2919 3069 
L 1281 3069 
z
" transform="scale(0.015625)"/>
       <path id="WenQuanYiZenHei-5c0f" d="M 6350 1119 
L 5906 856 
L 5131 2119 
L 4319 3350 
L 4744 3644 
L 5569 2400 
L 6350 1119 
z
M 1656 3613 
Q 1925 3513 2213 3475 
Q 1613 1638 488 713 
Q 331 963 56 1075 
Q 531 1425 950 1956 
Q 1475 2619 1656 3613 
z
M 3150 138 
L 3150 4300 
Q 3150 4781 3125 5256 
Q 3388 5231 3650 5256 
Q 3625 4781 3625 4300 
L 3625 -19 
Q 3625 -488 3350 -663 
Q 3056 -844 2406 -838 
Q 2481 -506 2250 -263 
Q 2463 -288 2728 -291 
Q 2994 -294 3072 -234 
Q 3150 -175 3150 138 
z
" transform="scale(0.015625)"/>
       <path id="WenQuanYiZenHei-20" transform="scale(0.015625)"/>
       <path id="WenQuanYiZenHei-28" d="M 1606 -1094 
L 1275 -1094 
Q 475 -100 338 1231 
Q 319 1438 319 1656 
Q 319 3031 1156 4244 
Q 1213 4313 1269 4388 
L 1600 4388 
Q 806 3169 794 1681 
Q 794 188 1606 -1094 
z
" transform="scale(0.015625)"/>
       <path id="WenQuanYiZenHei-42" d="M 3675 1213 
Q 3675 613 3250 281 
Q 2913 13 2313 0 
L 2169 0 
L 519 0 
L 519 4388 
L 2175 4388 
Q 2706 4388 2981 4244 
Q 3025 4219 3081 4188 
Q 3531 3881 3538 3319 
Q 3538 2744 3088 2463 
L 2888 2375 
Q 2831 2350 2763 2338 
L 2763 2325 
Q 3313 2206 3550 1725 
Q 3675 1494 3675 1213 
z
M 2994 3250 
Q 2994 3856 2313 3938 
Q 2225 3944 2131 3944 
L 1069 3944 
L 1069 2506 
L 1981 2506 
Q 2994 2506 2994 3250 
z
M 3125 1238 
Q 3125 1638 2838 1894 
Q 2825 1906 2806 1919 
Q 2588 2088 2113 2088 
L 1069 2088 
L 1069 469 
L 2144 469 
Q 2975 469 3106 1038 
Q 3125 1125 3125 1238 
z
" transform="scale(0.015625)"/>
       <path id="WenQuanYiZenHei-29" d="M 1600 1656 
Q 1600 306 869 -788 
Q 769 -950 644 -1094 
L 313 -1094 
Q 1125 188 1125 1681 
Q 1125 3169 338 4363 
Q 325 4375 319 4388 
L 650 4388 
Q 1525 3231 1594 1863 
Q 1600 1763 1600 1656 
z
" transform="scale(0.015625)"/>
      </defs>
      <use xlink:href="#WenQuanYiZenHei-6d41"/>
      <use xlink:href="#WenQuanYiZenHei-5927" x="100"/>
      <use xlink:href="#WenQuanYiZenHei-5c0f" x="200"/>
      <use xlink:href="#WenQuanYiZenHei-20" x="300"/>
      <use xlink:href="#WenQuanYiZenHei-28" x="329.980469"/>
      <use xlink:href="#WenQuanYiZenHei-42" x="359.960938"/>
      <use xlink:href="#WenQuanYiZenHei-29" x="421.875"/>
     </g>
    </g>
   </g>
   <g id="matplotlib.axis_2">
    <g id="ytick_1">
     <g id="line2d_23">
      <path d="M 51.730859 186.705268 
L 270.610966 186.705268 
" clip-path="url(#p33ba716bf7)" style="fill: none; stroke: #b0b0b0; stroke-opacity: 0.5; stroke-width: 0.8; stroke-linecap: square"/>
     </g>
     <g id="line2d_24">
      <defs>
       <path id="m9921c2a7d0" d="M 0 0 
L -3.5 0 
" style="stroke: #000000; stroke-width: 0.8"/>
      </defs>
      <g>
       <use xlink:href="#m9921c2a7d0" x="51.730859" y="186.705268" style="stroke: #000000; stroke-width: 0.8"/>
      </g>
     </g>
     <g id="text_13">
      <!-- 25 -->
      <g transform="translate(32.005859 190.504486) scale(0.1 -0.1)">
       <use xlink:href="#DejaVuSans-32"/>
       <use xlink:href="#DejaVuSans-35" x="63.623047"/>
      </g>
     </g>
    </g>
    <g id="ytick_2">
     <g id="line2d_25">
      <path d="M 51.730859 165.355652 
L 270.610966 165.355652 
" clip-path="url(#p33ba716bf7)" style="fill: none; stroke: #b0b0b0; stroke-opacity: 0.5; stroke-width: 0.8; stroke-linecap: square"/>
     </g>
     <g id="line2d_26">
      <g>
       <use xlink:href="#m9921c2a7d0" x="51.730859" y="165.355652" style="stroke: #000000; stroke-width: 0.8"/>
      </g>
     </g>
     <g id="text_14">
      <!-- 50 -->
      <g transform="translate(32.005859 169.154871) scale(0.1 -0.1)">
       <use xlink:href="#DejaVuSans-35"/>
       <use xlink:href="#DejaVuSans-30" x="63.623047"/>
      </g>
     </g>
    </g>
    <g id="ytick_3">
     <g id="line2d_27">
      <path d="M 51.730859 144.006037 
L 270.610966 144.006037 
" clip-path="url(#p33ba716bf7)" style="fill: none; stroke: #b0b0b0; stroke-opacity: 0.5; stroke-width: 0.8; stroke-linecap: square"/>
     </g>
     <g id="line2d_28">
      <g>
       <use xlink:href="#m9921c2a7d0" x="51.730859" y="144.006037" style="stroke: #000000; stroke-width: 0.8"/>
      </g>
     </g>
     <g id="text_15">
      <!-- 75 -->
      <g transform="translate(32.005859 147.805256) scale(0.1 -0.1)">
       <use xlink:href="#DejaVuSans-37"/>
       <use xlink:href="#DejaVuSans-35" x="63.623047"/>
      </g>
     </g>
    </g>
    <g id="ytick_4">
     <g id="line2d_29">
      <path d="M 51.730859 122.656422 
L 270.610966 122.656422 
" clip-path="url(#p33ba716bf7)" style="fill: none; stroke: #b0b0b0; stroke-opacity: 0.5; stroke-width: 0.8; stroke-linecap: square"/>
     </g>
     <g id="line2d_30">
      <g>
       <use xlink:href="#m9921c2a7d0" x="51.730859" y="122.656422" style="stroke: #000000; stroke-width: 0.8"/>
      </g>
     </g>
     <g id="text_16">
      <!-- 100 -->
      <g transform="translate(25.643359 126.455641) scale(0.1 -0.1)">
       <use xlink:href="#DejaVuSans-31"/>
       <use xlink:href="#DejaVuSans-30" x="63.623047"/>
       <use xlink:href="#DejaVuSans-30" x="127.246094"/>
      </g>
     </g>
    </g>
    <g id="ytick_5">
     <g id="line2d_31">
      <path d="M 51.730859 101.306807 
L 270.610966 101.306807 
" clip-path="url(#p33ba716bf7)" style="fill: none; stroke: #b0b0b0; stroke-opacity: 0.5; stroke-width: 0.8; stroke-linecap: square"/>
     </g>
     <g id="line2d_32">
      <g>
       <use xlink:href="#m9921c2a7d0" x="51.730859" y="101.306807" style="stroke: #000000; stroke-width: 0.8"/>
      </g>
     </g>
     <g id="text_17">
      <!-- 125 -->
      <g transform="translate(25.643359 105.106025) scale(0.1 -0.1)">
       <use xlink:href="#DejaVuSans-31"/>
       <use xlink:href="#DejaVuSans-32" x="63.623047"/>
       <use xlink:href="#DejaVuSans-35" x="127.246094"/>
      </g>
     </g>
    </g>
    <g id="ytick_6">
     <g id="line2d_33">
      <path d="M 51.730859 79.957191 
L 270.610966 79.957191 
" clip-path="url(#p33ba716bf7)" style="fill: none; stroke: #b0b0b0; stroke-opacity: 0.5; stroke-width: 0.8; stroke-linecap: square"/>
     </g>
     <g id="line2d_34">
      <g>
       <use xlink:href="#m9921c2a7d0" x="51.730859" y="79.957191" style="stroke: #000000; stroke-width: 0.8"/>
      </g>
     </g>
     <g id="text_18">
      <!-- 150 -->
      <g transform="translate(25.643359 83.75641) scale(0.1 -0.1)">
       <use xlink:href="#DejaVuSans-31"/>
       <use xlink:href="#DejaVuSans-35" x="63.623047"/>
       <use xlink:href="#DejaVuSans-30" x="127.246094"/>
      </g>
     </g>
    </g>
    <g id="ytick_7">
     <g id="line2d_35">
      <path d="M 51.730859 58.607576 
L 270.610966 58.607576 
" clip-path="url(#p33ba716bf7)" style="fill: none; stroke: #b0b0b0; stroke-opacity: 0.5; stroke-width: 0.8; stroke-linecap: square"/>
     </g>
     <g id="line2d_36">
      <g>
       <use xlink:href="#m9921c2a7d0" x="51.730859" y="58.607576" style="stroke: #000000; stroke-width: 0.8"/>
      </g>
     </g>
     <g id="text_19">
      <!-- 175 -->
      <g transform="translate(25.643359 62.406795) scale(0.1 -0.1)">
       <use xlink:href="#DejaVuSans-31"/>
       <use xlink:href="#DejaVuSans-37" x="63.623047"/>
       <use xlink:href="#DejaVuSans-35" x="127.246094"/>
      </g>
     </g>
    </g>
    <g id="text_20">
     <!-- 尾流完成时间减缓 -->
     <g transform="translate(19.235 181.867191) rotate(-90) scale(0.145 -0.145)">
      <defs>
       <path id="WenQuanYiZenHei-5c3e" d="M 3813 -688 
Q 3356 -650 3219 -256 
Q 3156 -88 3156 144 
L 3156 825 
L 2181 700 
Q 1831 656 1488 594 
Q 1481 788 1438 969 
Q 1788 1000 2138 1044 
L 3156 1169 
L 3156 1738 
L 2456 1650 
Q 2106 1606 1763 1550 
Q 1756 1738 1719 1925 
Q 2063 1950 2413 1994 
L 3156 2088 
L 3156 2675 
Q 2394 2600 1750 2525 
L 1506 2963 
Q 2281 2906 3406 3069 
Q 4388 3194 4925 3325 
Q 4925 3069 4981 2813 
Q 4438 2788 3600 2713 
L 3600 2144 
L 4481 2256 
Q 4831 2300 5175 2356 
Q 5175 2169 5219 1981 
Q 4875 1956 4525 1913 
L 3600 1794 
L 3600 1225 
L 5006 1406 
Q 5350 1450 5694 1506 
Q 5700 1319 5744 1131 
Q 5394 1106 5050 1063 
L 3600 881 
L 3600 144 
Q 3600 -288 3819 -288 
L 5319 -288 
Q 5494 -263 5531 -88 
L 5638 381 
Q 5838 269 6063 244 
L 5888 -419 
Q 5856 -531 5787 -609 
Q 5719 -688 5625 -688 
L 3813 -688 
z
M 1019 2031 
L 1019 4994 
L 5469 5006 
L 5469 3544 
L 1463 3544 
L 1463 2031 
Q 1481 306 625 -644 
Q 438 -444 163 -438 
Q 644 6 831 597 
Q 1019 1188 1019 2031 
z
M 1463 3888 
L 5025 3888 
L 5025 4656 
L 1463 4650 
L 1463 3888 
z
" transform="scale(0.015625)"/>
       <path id="WenQuanYiZenHei-5b8c" d="M 4231 -681 
Q 3950 -681 3762 -475 
Q 3575 -269 3575 75 
L 3575 1906 
L 2731 1906 
Q 2263 431 2156 206 
Q 2050 -19 1834 -200 
Q 1619 -381 1350 -506 
Q 906 -713 425 -819 
Q 425 -538 263 -319 
Q 981 -175 1425 75 
Q 1750 263 1875 656 
Q 1938 819 1975 963 
L 2250 1906 
L 1213 1906 
Q 863 1906 513 1888 
Q 538 2075 513 2269 
Q 863 2250 1213 2250 
L 5194 2250 
Q 5538 2250 5888 2269 
Q 5869 2075 5888 1888 
Q 5538 1906 5194 1906 
L 4019 1906 
L 4019 75 
Q 4019 -75 4075 -178 
Q 4131 -281 4238 -281 
L 5456 -281 
Q 5525 -281 5563 -225 
Q 5631 -125 5644 44 
L 5769 813 
Q 5963 681 6194 681 
L 5981 -475 
Q 5963 -544 5913 -612 
Q 5863 -681 5788 -681 
L 4231 -681 
z
M 4919 3431 
Q 4900 3244 4919 3050 
Q 4569 3069 4219 3069 
L 1963 3069 
Q 1613 3069 1263 3050 
Q 1281 3244 1263 3431 
Q 1613 3413 1963 3413 
L 4219 3413 
Q 4569 3413 4919 3431 
z
M 875 3425 
L 431 3425 
L 431 4669 
L 3006 4669 
L 2488 5050 
L 2781 5444 
L 3438 4956 
L 3225 4669 
L 5831 4669 
L 5831 3425 
L 5388 3425 
L 5388 4325 
L 875 4325 
L 875 3425 
z
" transform="scale(0.015625)"/>
       <path id="WenQuanYiZenHei-6210" d="M 5425 4344 
L 5063 4006 
L 4269 4863 
L 4638 5200 
L 5425 4344 
z
M 4088 1006 
Q 3588 1988 3613 3594 
L 1481 3588 
L 1481 2644 
L 2975 2644 
L 2975 638 
Q 2975 413 2788 250 
Q 2513 13 1825 19 
Q 1900 331 1681 569 
Q 1875 550 2159 547 
Q 2444 544 2484 578 
Q 2525 613 2525 731 
L 2525 2281 
L 1481 2281 
Q 1556 456 625 -531 
Q 444 -319 169 -294 
Q 1050 413 1031 1975 
L 1031 3950 
L 3613 3950 
L 3594 5256 
Q 3838 5231 4088 5256 
L 4069 3950 
L 5331 3950 
Q 5694 3950 6063 3969 
Q 6038 3769 6063 3575 
Q 5694 3594 5331 3594 
L 4063 3594 
Q 4069 2956 4131 2431 
Q 4194 1906 4400 1406 
Q 4644 1781 4844 2356 
Q 5044 2931 5113 3250 
Q 5375 3175 5650 3150 
Q 5356 1931 4619 963 
Q 4981 319 5638 -138 
Q 5638 406 5606 931 
Q 5831 781 6106 788 
Q 6163 131 6081 -531 
Q 6081 -625 6013 -694 
Q 5894 -819 5738 -750 
Q 4856 -263 4313 600 
Q 3544 -238 2531 -644 
Q 2463 -369 2244 -188 
Q 2731 -6 3222 297 
Q 3713 600 4088 1006 
z
" transform="scale(0.015625)"/>
       <path id="WenQuanYiZenHei-65f6" d="M 3594 1119 
Q 3250 1863 2819 2556 
L 3238 2813 
Q 3681 2094 4038 1331 
L 3594 1119 
z
M 4744 144 
L 4744 3400 
L 3369 3400 
Q 3019 3400 2669 3381 
Q 2688 3569 2669 3756 
Q 3019 3744 3369 3744 
L 4744 3744 
L 4744 4356 
Q 4744 4806 4719 5256 
Q 4969 5231 5213 5256 
Q 5188 4806 5188 4356 
L 5188 3744 
L 5488 3744 
Q 5838 3744 6188 3756 
Q 6169 3569 6188 3381 
Q 5838 3400 5488 3400 
L 5188 3400 
L 5188 -31 
Q 5188 -475 4938 -644 
Q 4675 -825 4056 -819 
Q 4125 -513 3913 -275 
Q 4106 -300 4353 -303 
Q 4600 -306 4672 -247 
Q 4744 -188 4744 144 
z
M 975 219 
L 425 219 
L 425 4700 
L 2406 4700 
L 2406 219 
L 1863 219 
L 1863 588 
L 975 588 
L 975 219 
z
M 1863 2806 
L 1863 4381 
L 975 4381 
L 975 2806 
L 1863 2806 
z
M 1863 2488 
L 975 2488 
L 975 906 
L 1863 906 
L 1863 2488 
z
" transform="scale(0.015625)"/>
       <path id="WenQuanYiZenHei-95f4" d="M 2313 363 
L 1869 363 
L 1869 3631 
L 4319 3631 
L 4319 363 
L 3875 363 
L 3875 681 
L 2313 681 
L 2313 363 
z
M 3875 2338 
L 3875 3288 
L 2313 3288 
L 2313 2338 
L 3875 2338 
z
M 3875 1994 
L 2313 1994 
L 2313 1025 
L 3875 1025 
L 3875 1994 
z
M 4638 -794 
Q 4688 -456 4494 -256 
Q 4688 -281 4944 -284 
Q 5200 -288 5269 -234 
Q 5338 -181 5338 119 
L 5338 4394 
L 2988 4394 
Q 2650 4394 2319 4375 
Q 2338 4556 2319 4738 
Q 2650 4725 2988 4725 
L 5775 4725 
L 5775 -44 
Q 5775 -563 5369 -706 
Q 5025 -819 4638 -794 
z
M 950 -844 
Q 706 -819 469 -844 
Q 488 -400 488 44 
L 488 3413 
Q 488 3863 469 4306 
Q 706 4281 950 4306 
Q 931 3863 931 3413 
L 931 44 
Q 931 -400 950 -844 
z
M 1713 3913 
Q 1363 4444 944 4906 
L 1300 5231 
Q 1744 4738 2113 4181 
L 1713 3913 
z
" transform="scale(0.015625)"/>
       <path id="WenQuanYiZenHei-51cf" d="M 5513 4469 
L 5175 4156 
L 4544 4838 
L 4888 5150 
L 5513 4469 
z
M 5531 2881 
Q 5294 1775 4906 825 
Q 5188 281 5650 -106 
Q 5638 300 5606 700 
Q 5825 569 6075 588 
Q 6138 31 6081 -525 
Q 6081 -644 5994 -706 
Q 5875 -806 5738 -725 
Q 5094 -288 4675 381 
Q 4031 -706 2931 -931 
Q 2906 -669 2725 -469 
Q 3438 -350 3913 131 
Q 4225 413 4438 825 
Q 4031 1675 4019 2888 
Q 4013 3363 4025 3725 
L 2144 3725 
L 2144 1338 
Q 2131 450 1775 -81 
Q 1500 -494 1125 -731 
Q 1006 -500 763 -413 
Q 1694 0 1719 1338 
L 1719 4025 
L 4025 4025 
L 4000 5256 
Q 4238 5231 4469 5256 
L 4450 4025 
L 5481 4025 
Q 5781 4025 6088 4038 
Q 6069 3875 6088 3713 
Q 5781 3725 5481 3725 
L 4444 3725 
Q 4444 3388 4438 3044 
Q 4438 2144 4675 1375 
Q 4919 2169 5038 3013 
Q 5281 2925 5531 2881 
z
M 2363 1106 
L 2363 2344 
L 3806 2338 
L 3800 538 
L 2794 531 
Q 2800 388 2806 244 
Q 2575 269 2344 244 
Q 2363 669 2363 1106 
z
M 3825 3175 
Q 3806 3013 3825 2850 
L 3063 2863 
Q 2763 2863 2463 2850 
Q 2475 3013 2463 3175 
L 3219 3163 
Q 3525 3163 3825 3175 
z
M 2788 2044 
L 2788 850 
L 3381 838 
L 3381 2044 
L 2788 2044 
z
M 625 -450 
Q 450 -281 194 -263 
Q 369 206 550 822 
Q 731 1438 1056 2963 
L 1256 2794 
Q 950 1313 806 569 
L 625 -450 
z
M 863 3375 
Q 544 3900 169 4356 
L 406 4725 
Q 800 4244 1144 3694 
L 863 3375 
z
" transform="scale(0.015625)"/>
       <path id="WenQuanYiZenHei-7f13" d="M 2688 2263 
Q 2419 2263 2150 2250 
Q 2163 2394 2150 2538 
Q 2419 2525 2688 2525 
L 3388 2525 
Q 3444 2756 3481 3000 
L 3006 3000 
Q 2719 3000 2425 2988 
Q 2438 3144 2425 3300 
Q 2719 3288 3006 3288 
L 4500 3288 
Q 4956 3813 5338 4531 
Q 5531 4406 5744 4319 
Q 5500 3831 5044 3288 
L 5863 3300 
Q 5850 3144 5863 2988 
Q 5575 3000 5281 3000 
L 4794 3000 
L 4763 2956 
Q 4744 2981 4725 3000 
L 3938 3000 
Q 3894 2763 3831 2525 
L 5600 2525 
Q 5869 2525 6138 2538 
Q 6125 2394 6138 2250 
Q 5869 2263 5600 2263 
L 3756 2263 
Q 3675 2000 3575 1756 
L 5531 1756 
Q 5275 956 4700 350 
Q 5256 -150 6125 -375 
Q 5925 -525 5869 -769 
Q 5075 -556 4425 88 
Q 3725 -506 2819 -706 
Q 2706 -475 2525 -300 
Q 3438 -194 4138 400 
Q 3750 863 3481 1444 
L 3531 1463 
L 3444 1463 
Q 2863 238 1856 -519 
Q 1731 -288 1494 -181 
Q 2131 256 2603 884 
Q 3075 1513 3313 2263 
L 2688 2263 
z
M 4513 3775 
L 4125 3525 
L 3531 4463 
L 3875 4675 
L 2875 4594 
Q 3263 4131 3575 3613 
L 3181 3375 
Q 2875 3875 2500 4331 
L 2813 4588 
Q 2300 4544 2250 4544 
L 2025 4956 
Q 2850 4894 4075 5044 
Q 5138 5156 5694 5288 
Q 5694 5044 5744 4806 
Q 5088 4775 3938 4681 
L 4513 3775 
z
M 3888 1463 
Q 4131 994 4413 663 
Q 4744 1019 4950 1463 
L 3888 1463 
z
M 319 -244 
Q 294 50 163 244 
Q 494 281 900 378 
Q 1306 475 2250 819 
L 2263 575 
Q 1369 225 994 62 
Q 619 -100 319 -244 
z
M 1013 5044 
Q 1219 4963 1456 4919 
Q 1425 4794 1359 4619 
Q 1294 4444 994 3787 
Q 694 3131 581 2919 
L 1225 2994 
Q 1544 3525 1694 3988 
Q 1881 3863 2106 3781 
Q 2044 3619 1931 3422 
Q 1819 3225 1356 2512 
Q 894 1800 725 1575 
L 1506 1700 
L 1800 1781 
L 1794 1488 
L 1544 1456 
L 169 1194 
L 131 1469 
Q 231 1500 306 1588 
Q 619 1963 1063 2719 
L 106 2581 
L 75 2856 
Q 169 2881 225 2969 
Q 394 3244 644 3856 
Q 950 4563 1013 5044 
z
" transform="scale(0.015625)"/>
      </defs>
      <use xlink:href="#WenQuanYiZenHei-5c3e"/>
      <use xlink:href="#WenQuanYiZenHei-6d41" x="100"/>
      <use xlink:href="#WenQuanYiZenHei-5b8c" x="200"/>
      <use xlink:href="#WenQuanYiZenHei-6210" x="300"/>
      <use xlink:href="#WenQuanYiZenHei-65f6" x="400"/>
      <use xlink:href="#WenQuanYiZenHei-95f4" x="500"/>
      <use xlink:href="#WenQuanYiZenHei-51cf" x="600"/>
      <use xlink:href="#WenQuanYiZenHei-7f13" x="700"/>
     </g>
    </g>
   </g>
   <g id="line2d_37">
    <path d="M 62.178597 157.712661 
L 72.626335 152.352114 
L 83.074073 160.99051 
L 93.521811 161.399825 
L 103.969548 153.132229 
L 114.417286 162.321274 
L 124.865024 157.569362 
L 135.312762 156.339881 
L 145.7605 158.28261 
L 156.208237 159.56632 
L 166.655975 161.22954 
L 177.103713 153.403284 
L 187.551451 159.474346 
L 197.999189 158.634708 
L 208.446926 161.256355 
L 218.894664 160.231062 
L 229.342402 164.119595 
L 239.79014 170.840796 
L 250.237878 46.877244 
L 260.685615 145.265664 
" clip-path="url(#p33ba716bf7)" style="fill: none; stroke: #f97306; stroke-width: 3; stroke-linecap: square"/>
    <defs>
     <path id="m4987e1433e" d="M 0 0.5 
C 0.132602 0.5 0.25979 0.447317 0.353553 0.353553 
C 0.447317 0.25979 0.5 0.132602 0.5 0 
C 0.5 -0.132602 0.447317 -0.25979 0.353553 -0.353553 
C 0.25979 -0.447317 0.132602 -0.5 0 -0.5 
C -0.132602 -0.5 -0.25979 -0.447317 -0.353553 -0.353553 
C -0.447317 -0.25979 -0.5 -0.132602 -0.5 0 
C -0.5 0.132602 -0.447317 0.25979 -0.353553 0.353553 
C -0.25979 0.447317 -0.132602 0.5 0 0.5 
z
" style="stroke: #f97306"/>
    </defs>
    <g clip-path="url(#p33ba716bf7)">
     <use xlink:href="#m4987e1433e" x="62.178597" y="157.712661" style="fill: #f97306; stroke: #f97306"/>
     <use xlink:href="#m4987e1433e" x="72.626335" y="152.352114" style="fill: #f97306; stroke: #f97306"/>
     <use xlink:href="#m4987e1433e" x="83.074073" y="160.99051" style="fill: #f97306; stroke: #f97306"/>
     <use xlink:href="#m4987e1433e" x="93.521811" y="161.399825" style="fill: #f97306; stroke: #f97306"/>
     <use xlink:href="#m4987e1433e" x="103.969548" y="153.132229" style="fill: #f97306; stroke: #f97306"/>
     <use xlink:href="#m4987e1433e" x="114.417286" y="162.321274" style="fill: #f97306; stroke: #f97306"/>
     <use xlink:href="#m4987e1433e" x="124.865024" y="157.569362" style="fill: #f97306; stroke: #f97306"/>
     <use xlink:href="#m4987e1433e" x="135.312762" y="156.339881" style="fill: #f97306; stroke: #f97306"/>
     <use xlink:href="#m4987e1433e" x="145.7605" y="158.28261" style="fill: #f97306; stroke: #f97306"/>
     <use xlink:href="#m4987e1433e" x="156.208237" y="159.56632" style="fill: #f97306; stroke: #f97306"/>
     <use xlink:href="#m4987e1433e" x="166.655975" y="161.22954" style="fill: #f97306; stroke: #f97306"/>
     <use xlink:href="#m4987e1433e" x="177.103713" y="153.403284" style="fill: #f97306; stroke: #f97306"/>
     <use xlink:href="#m4987e1433e" x="187.551451" y="159.474346" style="fill: #f97306; stroke: #f97306"/>
     <use xlink:href="#m4987e1433e" x="197.999189" y="158.634708" style="fill: #f97306; stroke: #f97306"/>
     <use xlink:href="#m4987e1433e" x="208.446926" y="161.256355" style="fill: #f97306; stroke: #f97306"/>
     <use xlink:href="#m4987e1433e" x="218.894664" y="160.231062" style="fill: #f97306; stroke: #f97306"/>
     <use xlink:href="#m4987e1433e" x="229.342402" y="164.119595" style="fill: #f97306; stroke: #f97306"/>
     <use xlink:href="#m4987e1433e" x="239.79014" y="170.840796" style="fill: #f97306; stroke: #f97306"/>
     <use xlink:href="#m4987e1433e" x="250.237878" y="46.877244" style="fill: #f97306; stroke: #f97306"/>
     <use xlink:href="#m4987e1433e" x="260.685615" y="145.265664" style="fill: #f97306; stroke: #f97306"/>
    </g>
   </g>
   <g id="line2d_38">
    <path d="M 62.178597 149.738238 
L 72.626335 148.817557 
L 83.074073 151.521102 
L 93.521811 151.04381 
L 103.969548 148.229247 
L 114.417286 149.722781 
L 124.865024 152.532903 
L 135.312762 152.466206 
L 145.7605 152.8505 
L 156.208237 148.526519 
L 166.655975 152.956137 
L 177.103713 147.822324 
L 187.551451 153.040853 
L 197.999189 148.023437 
L 208.446926 154.361625 
L 218.894664 153.53531 
L 229.342402 158.871176 
L 239.79014 162.924529 
L 250.237878 49.648424 
L 260.685615 138.900234 
" clip-path="url(#p33ba716bf7)" style="fill: none; stroke-dasharray: 11.1,4.8; stroke-dashoffset: 0; stroke: #0343df; stroke-width: 3"/>
    <defs>
     <path id="m3593eca3e2" d="M -0.5 0.5 
L 0.5 0.5 
L 0.5 -0.5 
L -0.5 -0.5 
z
" style="stroke: #0343df; stroke-linejoin: miter"/>
    </defs>
    <g clip-path="url(#p33ba716bf7)">
     <use xlink:href="#m3593eca3e2" x="62.178597" y="149.738238" style="fill: #0343df; stroke: #0343df; stroke-linejoin: miter"/>
     <use xlink:href="#m3593eca3e2" x="72.626335" y="148.817557" style="fill: #0343df; stroke: #0343df; stroke-linejoin: miter"/>
     <use xlink:href="#m3593eca3e2" x="83.074073" y="151.521102" style="fill: #0343df; stroke: #0343df; stroke-linejoin: miter"/>
     <use xlink:href="#m3593eca3e2" x="93.521811" y="151.04381" style="fill: #0343df; stroke: #0343df; stroke-linejoin: miter"/>
     <use xlink:href="#m3593eca3e2" x="103.969548" y="148.229247" style="fill: #0343df; stroke: #0343df; stroke-linejoin: miter"/>
     <use xlink:href="#m3593eca3e2" x="114.417286" y="149.722781" style="fill: #0343df; stroke: #0343df; stroke-linejoin: miter"/>
     <use xlink:href="#m3593eca3e2" x="124.865024" y="152.532903" style="fill: #0343df; stroke: #0343df; stroke-linejoin: miter"/>
     <use xlink:href="#m3593eca3e2" x="135.312762" y="152.466206" style="fill: #0343df; stroke: #0343df; stroke-linejoin: miter"/>
     <use xlink:href="#m3593eca3e2" x="145.7605" y="152.8505" style="fill: #0343df; stroke: #0343df; stroke-linejoin: miter"/>
     <use xlink:href="#m3593eca3e2" x="156.208237" y="148.526519" style="fill: #0343df; stroke: #0343df; stroke-linejoin: miter"/>
     <use xlink:href="#m3593eca3e2" x="166.655975" y="152.956137" style="fill: #0343df; stroke: #0343df; stroke-linejoin: miter"/>
     <use xlink:href="#m3593eca3e2" x="177.103713" y="147.822324" style="fill: #0343df; stroke: #0343df; stroke-linejoin: miter"/>
     <use xlink:href="#m3593eca3e2" x="187.551451" y="153.040853" style="fill: #0343df; stroke: #0343df; stroke-linejoin: miter"/>
     <use xlink:href="#m3593eca3e2" x="197.999189" y="148.023437" style="fill: #0343df; stroke: #0343df; stroke-linejoin: miter"/>
     <use xlink:href="#m3593eca3e2" x="208.446926" y="154.361625" style="fill: #0343df; stroke: #0343df; stroke-linejoin: miter"/>
     <use xlink:href="#m3593eca3e2" x="218.894664" y="153.53531" style="fill: #0343df; stroke: #0343df; stroke-linejoin: miter"/>
     <use xlink:href="#m3593eca3e2" x="229.342402" y="158.871176" style="fill: #0343df; stroke: #0343df; stroke-linejoin: miter"/>
     <use xlink:href="#m3593eca3e2" x="239.79014" y="162.924529" style="fill: #0343df; stroke: #0343df; stroke-linejoin: miter"/>
     <use xlink:href="#m3593eca3e2" x="250.237878" y="49.648424" style="fill: #0343df; stroke: #0343df; stroke-linejoin: miter"/>
     <use xlink:href="#m3593eca3e2" x="260.685615" y="138.900234" style="fill: #0343df; stroke: #0343df; stroke-linejoin: miter"/>
    </g>
   </g>
   <g id="line2d_39">
    <path d="M 62.178597 138.798097 
L 72.626335 141.818299 
L 83.074073 137.742316 
L 93.521811 144.864889 
L 103.969548 145.133126 
L 114.417286 142.500633 
L 124.865024 142.403108 
L 135.312762 142.076801 
L 145.7605 141.943152 
L 156.208237 143.405344 
L 166.655975 143.519693 
L 177.103713 144.990596 
L 187.551451 145.021425 
L 197.999189 144.569667 
L 208.446926 144.67001 
L 218.894664 144.019701 
L 229.342402 151.175921 
L 239.79014 155.196566 
L 250.237878 167.622725 
L 260.685615 150.555331 
" clip-path="url(#p33ba716bf7)" style="fill: none; stroke-dasharray: 19.2,4.8,3,4.8; stroke-dashoffset: 0; stroke: #7e1e9c; stroke-width: 3"/>
    <defs>
     <path id="ma3f5689687" d="M -0.5 0.5 
L 0.5 -0.5 
M -0.5 -0.5 
L 0.5 0.5 
" style="stroke: #7e1e9c"/>
    </defs>
    <g clip-path="url(#p33ba716bf7)">
     <use xlink:href="#ma3f5689687" x="62.178597" y="138.798097" style="fill: #7e1e9c; stroke: #7e1e9c"/>
     <use xlink:href="#ma3f5689687" x="72.626335" y="141.818299" style="fill: #7e1e9c; stroke: #7e1e9c"/>
     <use xlink:href="#ma3f5689687" x="83.074073" y="137.742316" style="fill: #7e1e9c; stroke: #7e1e9c"/>
     <use xlink:href="#ma3f5689687" x="93.521811" y="144.864889" style="fill: #7e1e9c; stroke: #7e1e9c"/>
     <use xlink:href="#ma3f5689687" x="103.969548" y="145.133126" style="fill: #7e1e9c; stroke: #7e1e9c"/>
     <use xlink:href="#ma3f5689687" x="114.417286" y="142.500633" style="fill: #7e1e9c; stroke: #7e1e9c"/>
     <use xlink:href="#ma3f5689687" x="124.865024" y="142.403108" style="fill: #7e1e9c; stroke: #7e1e9c"/>
     <use xlink:href="#ma3f5689687" x="135.312762" y="142.076801" style="fill: #7e1e9c; stroke: #7e1e9c"/>
     <use xlink:href="#ma3f5689687" x="145.7605" y="141.943152" style="fill: #7e1e9c; stroke: #7e1e9c"/>
     <use xlink:href="#ma3f5689687" x="156.208237" y="143.405344" style="fill: #7e1e9c; stroke: #7e1e9c"/>
     <use xlink:href="#ma3f5689687" x="166.655975" y="143.519693" style="fill: #7e1e9c; stroke: #7e1e9c"/>
     <use xlink:href="#ma3f5689687" x="177.103713" y="144.990596" style="fill: #7e1e9c; stroke: #7e1e9c"/>
     <use xlink:href="#ma3f5689687" x="187.551451" y="145.021425" style="fill: #7e1e9c; stroke: #7e1e9c"/>
     <use xlink:href="#ma3f5689687" x="197.999189" y="144.569667" style="fill: #7e1e9c; stroke: #7e1e9c"/>
     <use xlink:href="#ma3f5689687" x="208.446926" y="144.67001" style="fill: #7e1e9c; stroke: #7e1e9c"/>
     <use xlink:href="#ma3f5689687" x="218.894664" y="144.019701" style="fill: #7e1e9c; stroke: #7e1e9c"/>
     <use xlink:href="#ma3f5689687" x="229.342402" y="151.175921" style="fill: #7e1e9c; stroke: #7e1e9c"/>
     <use xlink:href="#ma3f5689687" x="239.79014" y="155.196566" style="fill: #7e1e9c; stroke: #7e1e9c"/>
     <use xlink:href="#ma3f5689687" x="250.237878" y="167.622725" style="fill: #7e1e9c; stroke: #7e1e9c"/>
     <use xlink:href="#ma3f5689687" x="260.685615" y="150.555331" style="fill: #7e1e9c; stroke: #7e1e9c"/>
    </g>
   </g>
   <g id="line2d_40">
    <path d="M 62.178597 149.858821 
L 72.626335 149.805959 
L 83.074073 151.37934 
L 93.521811 150.367198 
L 103.969548 150.595639 
L 114.417286 153.573312 
L 124.865024 150.344567 
L 135.312762 152.5452 
L 145.7605 153.51285 
L 156.208237 150.732191 
L 166.655975 151.288049 
L 177.103713 156.357131 
L 187.551451 150.992144 
L 197.999189 152.658353 
L 208.446926 156.017416 
L 218.894664 153.893386 
L 229.342402 157.408215 
L 239.79014 163.861606 
L 250.237878 173.752456 
L 260.685615 145.326212 
" clip-path="url(#p33ba716bf7)" style="fill: none; stroke-dasharray: 3,4.95; stroke-dashoffset: 0; stroke: #3f9b0b; stroke-width: 3"/>
    <defs>
     <path id="m8b4a341b7d" d="M -0 0.5 
L 0.5 -0.5 
L -0.5 -0.5 
z
" style="stroke: #3f9b0b; stroke-linejoin: miter"/>
    </defs>
    <g clip-path="url(#p33ba716bf7)">
     <use xlink:href="#m8b4a341b7d" x="62.178597" y="149.858821" style="fill: #3f9b0b; stroke: #3f9b0b; stroke-linejoin: miter"/>
     <use xlink:href="#m8b4a341b7d" x="72.626335" y="149.805959" style="fill: #3f9b0b; stroke: #3f9b0b; stroke-linejoin: miter"/>
     <use xlink:href="#m8b4a341b7d" x="83.074073" y="151.37934" style="fill: #3f9b0b; stroke: #3f9b0b; stroke-linejoin: miter"/>
     <use xlink:href="#m8b4a341b7d" x="93.521811" y="150.367198" style="fill: #3f9b0b; stroke: #3f9b0b; stroke-linejoin: miter"/>
     <use xlink:href="#m8b4a341b7d" x="103.969548" y="150.595639" style="fill: #3f9b0b; stroke: #3f9b0b; stroke-linejoin: miter"/>
     <use xlink:href="#m8b4a341b7d" x="114.417286" y="153.573312" style="fill: #3f9b0b; stroke: #3f9b0b; stroke-linejoin: miter"/>
     <use xlink:href="#m8b4a341b7d" x="124.865024" y="150.344567" style="fill: #3f9b0b; stroke: #3f9b0b; stroke-linejoin: miter"/>
     <use xlink:href="#m8b4a341b7d" x="135.312762" y="152.5452" style="fill: #3f9b0b; stroke: #3f9b0b; stroke-linejoin: miter"/>
     <use xlink:href="#m8b4a341b7d" x="145.7605" y="153.51285" style="fill: #3f9b0b; stroke: #3f9b0b; stroke-linejoin: miter"/>
     <use xlink:href="#m8b4a341b7d" x="156.208237" y="150.732191" style="fill: #3f9b0b; stroke: #3f9b0b; stroke-linejoin: miter"/>
     <use xlink:href="#m8b4a341b7d" x="166.655975" y="151.288049" style="fill: #3f9b0b; stroke: #3f9b0b; stroke-linejoin: miter"/>
     <use xlink:href="#m8b4a341b7d" x="177.103713" y="156.357131" style="fill: #3f9b0b; stroke: #3f9b0b; stroke-linejoin: miter"/>
     <use xlink:href="#m8b4a341b7d" x="187.551451" y="150.992144" style="fill: #3f9b0b; stroke: #3f9b0b; stroke-linejoin: miter"/>
     <use xlink:href="#m8b4a341b7d" x="197.999189" y="152.658353" style="fill: #3f9b0b; stroke: #3f9b0b; stroke-linejoin: miter"/>
     <use xlink:href="#m8b4a341b7d" x="208.446926" y="156.017416" style="fill: #3f9b0b; stroke: #3f9b0b; stroke-linejoin: miter"/>
     <use xlink:href="#m8b4a341b7d" x="218.894664" y="153.893386" style="fill: #3f9b0b; stroke: #3f9b0b; stroke-linejoin: miter"/>
     <use xlink:href="#m8b4a341b7d" x="229.342402" y="157.408215" style="fill: #3f9b0b; stroke: #3f9b0b; stroke-linejoin: miter"/>
     <use xlink:href="#m8b4a341b7d" x="239.79014" y="163.861606" style="fill: #3f9b0b; stroke: #3f9b0b; stroke-linejoin: miter"/>
     <use xlink:href="#m8b4a341b7d" x="250.237878" y="173.752456" style="fill: #3f9b0b; stroke: #3f9b0b; stroke-linejoin: miter"/>
     <use xlink:href="#m8b4a341b7d" x="260.685615" y="145.326212" style="fill: #3f9b0b; stroke: #3f9b0b; stroke-linejoin: miter"/>
    </g>
   </g>
   <g id="patch_3">
    <path d="M 51.730859 207.200898 
L 51.730859 40.533483 
" style="fill: none; stroke: #000000; stroke-width: 0.8; stroke-linejoin: miter; stroke-linecap: square"/>
   </g>
   <g id="patch_4">
    <path d="M 51.730859 207.200898 
L 270.610966 207.200898 
" style="fill: none; stroke: #000000; stroke-width: 0.8; stroke-linejoin: miter; stroke-linecap: square"/>
   </g>
   <g id="legend_1">
    <g id="line2d_41">
     <path d="M 56.530859 17.64 
L 74.530859 17.64 
L 92.530859 17.64 
" style="fill: none; stroke: #f97306; stroke-width: 3; stroke-linecap: square"/>
     <g>
      <use xlink:href="#m4987e1433e" x="74.530859" y="17.64" style="fill: #f97306; stroke: #f97306"/>
     </g>
    </g>
    <g id="text_21">
     <!-- Gemma -->
     <g transform="translate(102.130859 23.28) scale(0.12 -0.12)">
      <defs>
       <path id="DejaVuSans-47" d="M 3809 666 
L 3809 1919 
L 2778 1919 
L 2778 2438 
L 4434 2438 
L 4434 434 
Q 4069 175 3628 42 
Q 3188 -91 2688 -91 
Q 1594 -91 976 548 
Q 359 1188 359 2328 
Q 359 3472 976 4111 
Q 1594 4750 2688 4750 
Q 3144 4750 3555 4637 
Q 3966 4525 4313 4306 
L 4313 3634 
Q 3963 3931 3569 4081 
Q 3175 4231 2741 4231 
Q 1884 4231 1454 3753 
Q 1025 3275 1025 2328 
Q 1025 1384 1454 906 
Q 1884 428 2741 428 
Q 3075 428 3337 486 
Q 3600 544 3809 666 
z
" transform="scale(0.015625)"/>
       <path id="DejaVuSans-65" d="M 3597 1894 
L 3597 1613 
L 953 1613 
Q 991 1019 1311 708 
Q 1631 397 2203 397 
Q 2534 397 2845 478 
Q 3156 559 3463 722 
L 3463 178 
Q 3153 47 2828 -22 
Q 2503 -91 2169 -91 
Q 1331 -91 842 396 
Q 353 884 353 1716 
Q 353 2575 817 3079 
Q 1281 3584 2069 3584 
Q 2775 3584 3186 3129 
Q 3597 2675 3597 1894 
z
M 3022 2063 
Q 3016 2534 2758 2815 
Q 2500 3097 2075 3097 
Q 1594 3097 1305 2825 
Q 1016 2553 972 2059 
L 3022 2063 
z
" transform="scale(0.015625)"/>
       <path id="DejaVuSans-6d" d="M 3328 2828 
Q 3544 3216 3844 3400 
Q 4144 3584 4550 3584 
Q 5097 3584 5394 3201 
Q 5691 2819 5691 2113 
L 5691 0 
L 5113 0 
L 5113 2094 
Q 5113 2597 4934 2840 
Q 4756 3084 4391 3084 
Q 3944 3084 3684 2787 
Q 3425 2491 3425 1978 
L 3425 0 
L 2847 0 
L 2847 2094 
Q 2847 2600 2669 2842 
Q 2491 3084 2119 3084 
Q 1678 3084 1418 2786 
Q 1159 2488 1159 1978 
L 1159 0 
L 581 0 
L 581 3500 
L 1159 3500 
L 1159 2956 
Q 1356 3278 1631 3431 
Q 1906 3584 2284 3584 
Q 2666 3584 2933 3390 
Q 3200 3197 3328 2828 
z
" transform="scale(0.015625)"/>
       <path id="DejaVuSans-61" d="M 2194 1759 
Q 1497 1759 1228 1600 
Q 959 1441 959 1056 
Q 959 750 1161 570 
Q 1363 391 1709 391 
Q 2188 391 2477 730 
Q 2766 1069 2766 1631 
L 2766 1759 
L 2194 1759 
z
M 3341 1997 
L 3341 0 
L 2766 0 
L 2766 531 
Q 2569 213 2275 61 
Q 1981 -91 1556 -91 
Q 1019 -91 701 211 
Q 384 513 384 1019 
Q 384 1609 779 1909 
Q 1175 2209 1959 2209 
L 2766 2209 
L 2766 2266 
Q 2766 2663 2505 2880 
Q 2244 3097 1772 3097 
Q 1472 3097 1187 3025 
Q 903 2953 641 2809 
L 641 3341 
Q 956 3463 1253 3523 
Q 1550 3584 1831 3584 
Q 2591 3584 2966 3190 
Q 3341 2797 3341 1997 
z
" transform="scale(0.015625)"/>
      </defs>
      <use xlink:href="#DejaVuSans-47"/>
      <use xlink:href="#DejaVuSans-65" x="77.490234"/>
      <use xlink:href="#DejaVuSans-6d" x="139.013672"/>
      <use xlink:href="#DejaVuSans-6d" x="236.425781"/>
      <use xlink:href="#DejaVuSans-61" x="333.837891"/>
     </g>
    </g>
    <g id="line2d_42">
     <path d="M 56.530859 37.08 
L 74.530859 37.08 
L 92.530859 37.08 
" style="fill: none; stroke-dasharray: 11.1,4.8; stroke-dashoffset: 0; stroke: #0343df; stroke-width: 3"/>
     <g>
      <use xlink:href="#m3593eca3e2" x="74.530859" y="37.08" style="fill: #0343df; stroke: #0343df; stroke-linejoin: miter"/>
     </g>
    </g>
    <g id="text_22">
     <!-- ConWeave -->
     <g transform="translate(102.130859 42.72) scale(0.12 -0.12)">
      <defs>
       <path id="DejaVuSans-43" d="M 4122 4306 
L 4122 3641 
Q 3803 3938 3442 4084 
Q 3081 4231 2675 4231 
Q 1875 4231 1450 3742 
Q 1025 3253 1025 2328 
Q 1025 1406 1450 917 
Q 1875 428 2675 428 
Q 3081 428 3442 575 
Q 3803 722 4122 1019 
L 4122 359 
Q 3791 134 3420 21 
Q 3050 -91 2638 -91 
Q 1578 -91 968 557 
Q 359 1206 359 2328 
Q 359 3453 968 4101 
Q 1578 4750 2638 4750 
Q 3056 4750 3426 4639 
Q 3797 4528 4122 4306 
z
" transform="scale(0.015625)"/>
       <path id="DejaVuSans-6f" d="M 1959 3097 
Q 1497 3097 1228 2736 
Q 959 2375 959 1747 
Q 959 1119 1226 758 
Q 1494 397 1959 397 
Q 2419 397 2687 759 
Q 2956 1122 2956 1747 
Q 2956 2369 2687 2733 
Q 2419 3097 1959 3097 
z
M 1959 3584 
Q 2709 3584 3137 3096 
Q 3566 2609 3566 1747 
Q 3566 888 3137 398 
Q 2709 -91 1959 -91 
Q 1206 -91 779 398 
Q 353 888 353 1747 
Q 353 2609 779 3096 
Q 1206 3584 1959 3584 
z
" transform="scale(0.015625)"/>
       <path id="DejaVuSans-6e" d="M 3513 2113 
L 3513 0 
L 2938 0 
L 2938 2094 
Q 2938 2591 2744 2837 
Q 2550 3084 2163 3084 
Q 1697 3084 1428 2787 
Q 1159 2491 1159 1978 
L 1159 0 
L 581 0 
L 581 3500 
L 1159 3500 
L 1159 2956 
Q 1366 3272 1645 3428 
Q 1925 3584 2291 3584 
Q 2894 3584 3203 3211 
Q 3513 2838 3513 2113 
z
" transform="scale(0.015625)"/>
       <path id="DejaVuSans-57" d="M 213 4666 
L 850 4666 
L 1831 722 
L 2809 4666 
L 3519 4666 
L 4500 722 
L 5478 4666 
L 6119 4666 
L 4947 0 
L 4153 0 
L 3169 4050 
L 2175 0 
L 1381 0 
L 213 4666 
z
" transform="scale(0.015625)"/>
       <path id="DejaVuSans-76" d="M 191 3500 
L 800 3500 
L 1894 563 
L 2988 3500 
L 3597 3500 
L 2284 0 
L 1503 0 
L 191 3500 
z
" transform="scale(0.015625)"/>
      </defs>
      <use xlink:href="#DejaVuSans-43"/>
      <use xlink:href="#DejaVuSans-6f" x="69.824219"/>
      <use xlink:href="#DejaVuSans-6e" x="131.005859"/>
      <use xlink:href="#DejaVuSans-57" x="194.384766"/>
      <use xlink:href="#DejaVuSans-65" x="287.386719"/>
      <use xlink:href="#DejaVuSans-61" x="348.910156"/>
      <use xlink:href="#DejaVuSans-76" x="410.189453"/>
      <use xlink:href="#DejaVuSans-65" x="469.369141"/>
     </g>
    </g>
    <g id="line2d_43">
     <path d="M 175.441484 17.64 
L 193.441484 17.64 
L 211.441484 17.64 
" style="fill: none; stroke-dasharray: 19.2,4.8,3,4.8; stroke-dashoffset: 0; stroke: #7e1e9c; stroke-width: 3"/>
     <g>
      <use xlink:href="#ma3f5689687" x="193.441484" y="17.64" style="fill: #7e1e9c; stroke: #7e1e9c"/>
     </g>
    </g>
    <g id="text_23">
     <!-- CONGA -->
     <g transform="translate(221.041484 23.28) scale(0.12 -0.12)">
      <defs>
       <path id="DejaVuSans-4f" d="M 2522 4238 
Q 1834 4238 1429 3725 
Q 1025 3213 1025 2328 
Q 1025 1447 1429 934 
Q 1834 422 2522 422 
Q 3209 422 3611 934 
Q 4013 1447 4013 2328 
Q 4013 3213 3611 3725 
Q 3209 4238 2522 4238 
z
M 2522 4750 
Q 3503 4750 4090 4092 
Q 4678 3434 4678 2328 
Q 4678 1225 4090 567 
Q 3503 -91 2522 -91 
Q 1538 -91 948 565 
Q 359 1222 359 2328 
Q 359 3434 948 4092 
Q 1538 4750 2522 4750 
z
" transform="scale(0.015625)"/>
       <path id="DejaVuSans-4e" d="M 628 4666 
L 1478 4666 
L 3547 763 
L 3547 4666 
L 4159 4666 
L 4159 0 
L 3309 0 
L 1241 3903 
L 1241 0 
L 628 0 
L 628 4666 
z
" transform="scale(0.015625)"/>
       <path id="DejaVuSans-41" d="M 2188 4044 
L 1331 1722 
L 3047 1722 
L 2188 4044 
z
M 1831 4666 
L 2547 4666 
L 4325 0 
L 3669 0 
L 3244 1197 
L 1141 1197 
L 716 0 
L 50 0 
L 1831 4666 
z
" transform="scale(0.015625)"/>
      </defs>
      <use xlink:href="#DejaVuSans-43"/>
      <use xlink:href="#DejaVuSans-4f" x="69.824219"/>
      <use xlink:href="#DejaVuSans-4e" x="148.535156"/>
      <use xlink:href="#DejaVuSans-47" x="223.339844"/>
      <use xlink:href="#DejaVuSans-41" x="300.830078"/>
     </g>
    </g>
    <g id="line2d_44">
     <path d="M 175.441484 37.08 
L 193.441484 37.08 
L 211.441484 37.08 
" style="fill: none; stroke-dasharray: 3,4.95; stroke-dashoffset: 0; stroke: #3f9b0b; stroke-width: 3"/>
     <g>
      <use xlink:href="#m8b4a341b7d" x="193.441484" y="37.08" style="fill: #3f9b0b; stroke: #3f9b0b; stroke-linejoin: miter"/>
     </g>
    </g>
    <g id="text_24">
     <!-- ECMP -->
     <g transform="translate(221.041484 42.72) scale(0.12 -0.12)">
      <defs>
       <path id="DejaVuSans-45" d="M 628 4666 
L 3578 4666 
L 3578 4134 
L 1259 4134 
L 1259 2753 
L 3481 2753 
L 3481 2222 
L 1259 2222 
L 1259 531 
L 3634 531 
L 3634 0 
L 628 0 
L 628 4666 
z
" transform="scale(0.015625)"/>
       <path id="DejaVuSans-50" d="M 1259 4147 
L 1259 2394 
L 2053 2394 
Q 2494 2394 2734 2622 
Q 2975 2850 2975 3272 
Q 2975 3691 2734 3919 
Q 2494 4147 2053 4147 
L 1259 4147 
z
M 628 4666 
L 2053 4666 
Q 2838 4666 3239 4311 
Q 3641 3956 3641 3272 
Q 3641 2581 3239 2228 
Q 2838 1875 2053 1875 
L 1259 1875 
L 1259 0 
L 628 0 
L 628 4666 
z
" transform="scale(0.015625)"/>
      </defs>
      <use xlink:href="#DejaVuSans-45"/>
      <use xlink:href="#DejaVuSans-43" x="63.183594"/>
      <use xlink:href="#DejaVuSans-4d" x="133.007812"/>
      <use xlink:href="#DejaVuSans-50" x="219.287109"/>
     </g>
    </g>
   </g>
  </g>
 </g>
 <defs>
  <clipPath id="p33ba716bf7">
   <rect x="51.730859" y="40.533483" width="218.880107" height="166.667415"/>
  </clipPath>
 </defs>
</svg>
